/* XPM */
static char *result[] = {
/* columns rows colors chars-per-pixel */
"64 64 81 1 ",
"  c #0D0B0C",
". c #110E0F",
"X c #120F11",
"o c #120E19",
"O c #0A1119",
"+ c #131116",
"@ c #1F1F15",
"# c #14151B",
"$ c #18151B",
"% c #1D1C1A",
"& c #241E13",
"* c #221E1F",
"= c #2B1D1C",
"- c #23201E",
"; c #111B21",
": c #1C1B21",
"> c #231F20",
", c #242121",
"< c gray50",
"1 c #97570F",
"2 c #8A531A",
"3 c #915517",
"4 c #945619",
"5 c #9A5418",
"6 c #D45600",
"7 c #D45D01",
"8 c #D85F02",
"9 c #D66101",
"0 c #D96202",
"q c #DB630A",
"w c #E6770E",
"e c #E9740A",
"r c #E9850F",
"t c #F68106",
"y c #FF8A07",
"u c #F6860D",
"i c #F8850D",
"p c #F5880E",
"a c #F9890D",
"s c #FD9206",
"d c #FF910E",
"f c #EE8A18",
"g c #F68610",
"h c #FA8512",
"j c #F58813",
"k c #FB8A11",
"l c #F79613",
"z c #F99513",
"x c #FB9A16",
"c c #F7A40A",
"v c #FAA10D",
"b c #F3AF0E",
"n c #F6A314",
"m c #FAA412",
"M c #FBAA16",
"N c #F3A71E",
"B c #FAA719",
"V c #F6A918",
"C c #FBA91B",
"Z c #F8A523",
"A c #FEA921",
"S c #E6A73E",
"D c #958955",
"F c #ECA847",
"G c #EBA84F",
"H c #FABD52",
"J c #FECD55",
"K c #FFD55B",
"L c #858883",
"P c #878988",
"I c #8C8B8B",
"U c #958D8B",
"Y c #FFEA87",
"T c #FEED8B",
"R c #FCF28A",
"E c #FFEC91",
"W c #FEF695",
"Q c #FEFE95",
"! c #FDF998",
"~ c #FFFFF6",
"^ c #FFFFFF",
/* pixels */
"^^^^^^^^^^^^^^^^^^^^^^^^^^^^^^^^^^^^^^^^^^^^^^^^^^^^^^^^^^^^^^^^",
"^^^^^^^^^^^^^^^^^^^^^^^^^^^^^^^^^^^^^^^^^^^^^^^^^^^^^^^^^^^^^^^^",
"^^^^^^^^^^^^^^^^^^^^^^^^^^^^^^^^^^^^^^^^^^^^^^^^^^^^^^^^^^^^^^^^",
"^^^^^^^^^^^^^^^^^^^^^^^^^^^^^^^^^^^^^^^^^^^^^^^^^^^^^^^^^^^^^^^^",
"^^^^^^^^^^^^^^^^^^^^^^^^^^^^^^^^^^^^^^^^^^^^^^^^^^^^^^^^^^^^^^^^",
"^^^^^^^^^^^^^^^^^^^^^^^^^^^^^^^^^^^^^^^^^^^^^^^^^^^^^^^^^^^^^^^^",
"^^^^^^^^^^^^^^^^^^^^^^^^^^^^^^^^^^^^^^^^^^^^^^^^^^^^^^^^^^^^^^^^",
"^^^^^^^^^^^^^^^^^^^^^^^^^^^^^^^^^^^^^^^^^^^^^^^^^^^^^^^^^^^^^^^^",
"^^^^^^^^^^^^^^^^^^^^^^^^^^^^^^^^^^^^^^^^^^^^^^^^^^^^^^^^^^^^^^^^",
"^^^^^^^^^^^^^^^^^^^^^^^^^^^^^^^^^^^^^^^^^^^^^^^^^^^^^^^^^^^^^^^^",
"^^^^^^^^^^^^^^^^^^^^^^^^^^^^^^^^^^^^^^^^^^^^^^^^^^^^^^^^^^^^^^^^",
"^^^^^^^^^^^^^^^^^^^^^^^^^^^^^^^^^^^^^^^^^^^^^^^^^^^^^^^^^^^^^^^^",
"^^^^^^^^^^^^^^^^^^^^^^^^^^^.XXX.XXXXX^^^^^^^^^^^^^^^^^^^^^^^^^^^",
"^^^^^^^^^^^^^^^^^^^^^^^^^^^>>>>>>*>>*^^^^^^^^^^^^^^^^^^^^^^^^^^^",
"^^^^^^^^^^^^^^^^^^^^^^^^>>;iiiiiiuuii;>>^^^^^^^^^^^^^^^^^^^^^^^^",
"^^^^^^^^^^^^^^^^^^^^^^IU332zzzzxxzzzz233UI^^^^^^^^^^^^^^^^^^^^^^",
"^^^^^^^^^^^^^^^^^^^^^^>:iguBBBCnBBCCCiui:>^^^^^^^^^^^^^^^^^^^^^^",
"^^^^^^^^^^^^^^^^^^^:*-ugBBCCBBCCBBCCCBBBhu>**^^^^^^^^^^^^^^^^^^^",
"^^^^^^^^^^^^^^^^^<P145xxCCMrrrrrrrrrrCCBxx551L<^^^^^^^^^^^^^^^^^",
"^^^^^^^^^^^^^^^^^ @phhCVCCC8789087800MCCBBhuh@ ^^^^^^^^^^^^^^^^^",
"^^^^^^^^^^^^^^^^,yjNBCBBC90uuuuuuaihu07CBBBBCYQ*^^^^^^^^^^^^^^^^",
"^^^^^^^^^^^^^^^^,auCCCCbC77ieiitieiii77MbBBBCTQ*^^^^^^^^^^^^^^^^",
"^^^^^^^^^^^^^^^^>ztBCCBC7tiBMCBBBBMMBiu7ACCBmT!>^^^^^^^^^^^^^^^^",
"^^^^^^^^^^^^^^*,gCBCCC07iBMMCCBBBBBBMBBu79VCBCnT**^^^^^^^^^^^^^^",
"^^^^^^^^^^^^^^$#uCBBCC07uCnBBBBVBBBBBBBi76VCCCmEo+^^^^^^^^^^^^^^",
"^^^^^^^^^^^^^-apCCBB9qkgVCBBBBBBBBBBBBBBTT77CVNBTE>^^^^^^^^^^^^^",
"^^^^^^^^^^^^^*pynCV7khBBBCBBBBBBBBBBBBBCtgT!7CCBTT*^^^^^^^^^^^^^",
"^^^^^^^^^^^^^%puCCC9kgBBBCBBBBBBnBBBBCCmtgT!9CCBTT>^^^^^^^^^^^^^",
"^^^^^^^^^^^^^>iuCBC7agBBBBBBBBBmBBCCCVCuuuT!9BBBTT,^^^^^^^^^^^^^",
"^^^^^^^^^^^^^>iunBC9agBBBBBBBBBBBnBnBteuuuR!9BBBTT>^^^^^^^^^^^^^",
"^^^^^^^^^^^^^>iuBBB9auBBBBBBBBBBBBCCCiaauaR!9BBBTT>^^^^^^^^^^^^^",
"^^^^^^^^^^^^^>ipBBB7khBBBBBBBBBBBBCCguuaiuT!9BBBTT>^^^^^^^^^^^^^",
"^^^^^^^^^^^^^-pyCCC9huBBBBBCBBBBBCuigiuuuuT!9CCCTT>^^^^^^^^^^^^^",
"^^^^^^^^^^^^^*puBBB9agBBBCBBCBBCCCuuuhguugT!7CBCTT>^^^^^^^^^^^^^",
"^^^^^^^^^^^^^*uiBBC8hgCBBBBBBBCCMuguuuuuiuE!8ZCCTT*^^^^^^^^^^^^^",
"^^^^^^^^^^^^^,aaCBZfwexlCBBBBCCxxiihukgaHHSGfCBCTT>^^^^^^^^^^^^^",
"^^^^^^^^^^^^^*uiBBVB88uuBBBBBBBguguuuuua!T96CCCCTT>^^^^^^^^^^^^^",
"^^^^^^^^^^^^^^*&tCBBVA07gBBBBBauuuaguguT60BVBVnT*,^^^^^^^^^^^^^^",
"^^^^^^^^^^^^^^II4xxBBCrreBBBzzuuuuuuuHHFtrCCxJKDII^^^^^^^^^^^^^^",
"^^^^^^^^^^^^^^^^-auCBBBC8AVAuuuuuguuuRT0VnCNCTQ>^^^^^^^^^^^^^^^^",
"^^^^^^^^^^^^^^^^-daBMCBBC07TTTYRTYRYY79BCBBBVTQ>^^^^^^^^^^^^^^^^",
"^^^^^^^^^^^^^^^^XsaMCCBCB97!W!WW!!!!!99VCBvvcQQX^^^^^^^^^^^^^^^^",
"^^^^^^^^^^^^^^^^^.,uhhBBBBM0900970099CBCBBTTT> ^^^^^^^^^^^^^^^^^",
"^^^^^^^^^^^^^^^^^^^=>>TWCBBVVBBVBBVBBnBNWT,,%~^^^^^^^^^^^^^^^^^^",
"^^^^^^^^^^^^^^^^^^^ XoQ!xvNBnCnCBBBnBZxc!!X  ^^^^^^^^^^^^^^^^^^^",
"^^^^^^^^^^^^^^^^^^^^^^*OTTYBBCCCBVBCBTTT#*^^^^^^^^^^^^^^^^^^^^^^",
"^^^^^^^^^^^^^^^^^^^^^^^~>>oTTTTTTTTTT$>>~^^^^^^^^^^^^^^^^^^^^^^^",
"^^^^^^^^^^^^^^^^^^^^^^^^>>oTTTTTTTTTT$>>^^^^^^^^^^^^^^^^^^^^^^^^",
"^^^^^^^^^^^^^^^^^^^^^^^^^^^>>>>>>>>>>^^^^^^^^^^^^^^^^^^^^^^^^^^^",
"^^^^^^^^^^^^^^^^^^^^^^^^^^^^^^^^^^^^^^^^^^^^^^^^^^^^^^^^^^^^^^^^",
"^^^^^^^^^^^^^^^^^^^^^^^^^^^^^^^^^^^^^^^^^^^^^^^^^^^^^^^^^^^^^^^^",
"^^^^^^^^^^^^^^^^^^^^^^^^^^^^^^^^^^^^^^^^^^^^^^^^^^^^^^^^^^^^^^^^",
"^^^^^^^^^^^^^^^^^^^^^^^^^^^^^^^^^^^^^^^^^^^^^^^^^^^^^^^^^^^^^^^^",
"^^^^^^^^^^^^^^^^^^^^^^^^^^^^^^^^^^^^^^^^^^^^^^^^^^^^^^^^^^^^^^^^",
"^^^^^^^^^^^^^^^^^^^^^^^^^^^^^^^^^^^^^^^^^^^^^^^^^^^^^^^^^^^^^^^^",
"^^^^^^^^^^^^^^^^^^^^^^^^^^^^^^^^^^^^^^^^^^^^^^^^^^^^^^^^^^^^^^^^",
"^^^^^^^^^^^^^^^^^^^^^^^^^^^^^^^^^^^^^^^^^^^^^^^^^^^^^^^^^^^^^^^^",
"^^^^^^^^^^^^^^^^^^^^^^^^^^^^^^^^^^^^^^^^^^^^^^^^^^^^^^^^^^^^^^^^",
"^^^^^^^^^^^^^^^^^^^^^^^^^^^^^^^^^^^^^^^^^^^^^^^^^^^^^^^^^^^^^^^^",
"^^^^^^^^^^^^^^^^^^^^^^^^^^^^^^^^^^^^^^^^^^^^^^^^^^^^^^^^^^^^^^^^",
"^^^^^^^^^^^^^^^^^^^^^^^^^^^^^^^^^^^^^^^^^^^^^^^^^^^^^^^^^^^^^^^^",
"^^^^^^^^^^^^^^^^^^^^^^^^^^^^^^^^^^^^^^^^^^^^^^^^^^^^^^^^^^^^^^^^",
"^^^^^^^^^^^^^^^^^^^^^^^^^^^^^^^^^^^^^^^^^^^^^^^^^^^^^^^^^^^^^^^^",
"^^^^^^^^^^^^^^^^^^^^^^^^^^^^^^^^^^^^^^^^^^^^^^^^^^^^^^^^^^^^^^^^"
};
