/* XPM */
static char *result[] = {
/* columns rows colors chars-per-pixel */
"64 64 88 1 ",
"  c #040404",
". c #0A060A",
"X c #0F0E0B",
"o c #041002",
"O c #081E05",
"+ c #050914",
"@ c #0D0C12",
"# c #141011",
"$ c #171112",
"% c #131115",
"& c #181215",
"* c #1C1F12",
"= c #37220F",
"- c #2D2A20",
"; c #633B0B",
": c #0B5303",
"> c #1E4116",
", c #0D6B03",
"< c #136E07",
"1 c #127A04",
"2 c #27701C",
"3 c #2A5921",
"4 c #757446",
"5 c #844B09",
"6 c #D85800",
"7 c #D85E00",
"8 c #DC5F00",
"9 c #D96000",
"0 c #D86100",
"q c #DB6100",
"w c #DF6A00",
"e c #C57104",
"r c #D87904",
"t c #E27301",
"y c #E87400",
"u c #1BB105",
"i c #1FBF07",
"p c #31AA1E",
"a c #3DA92D",
"s c #40862B",
"d c #23CD0A",
"f c #27DB0C",
"g c #EB8702",
"h c #EF8F04",
"j c #F68300",
"k c #F68701",
"l c #FA8500",
"z c #F98701",
"x c #F48901",
"c c #F78801",
"v c #F68901",
"b c #F98901",
"n c #F98B01",
"m c #FE8E00",
"M c #F99503",
"N c #F39A06",
"B c #FA9D06",
"V c #F5A206",
"C c #FBA503",
"Z c #FBA806",
"A c #FAA209",
"S c #FBA60C",
"D c #F9A909",
"F c #FAAB08",
"G c #FAA90A",
"H c #FCA90A",
"J c #FEA90A",
"K c #FCAA0B",
"L c #FBA90C",
"P c #FAAB0D",
"I c #FDAC0C",
"U c #E69533",
"Y c #FBB725",
"T c #ADA864",
"R c #ECA640",
"E c #FCC440",
"W c #FDCD55",
"Q c #C0C26D",
"! c #F3CB68",
"~ c #EEEC8D",
"^ c #FDE682",
"/ c #FFEF8B",
"( c #FDEF8C",
") c #FFEE8D",
"_ c #FFEF8D",
"` c #FFEF90",
"' c #FFF193",
"] c #FEF793",
/* pixels */
"uuuuuuu,,,uuu,uu,uuuuuuuuuuuu,d,uu,ui,,uid,uu,ud,uuuuuuuuuuuuuuu",
"uuuuuuuuuuuuuu,uuuuuuuuuuuuuu,ud,u,uu,u,,,uuuu,ud,uuuuuuuuuuuuuu",
"uuu,uuu,uuuuu,d,uuuuuuuuuuuu,u,ud,uu,,,uu,uuuu,uuuuuuu,uuuuuuuuu",
"uu,d,u,,,uuuu,f,u,,,u,uuuuu,d1uuu,u,uuuu,d1uu,,uuuuuuu,,uuuuuuuu",
"uu,f,,d,d,uu,ui,,uid,,d,uuu,f,u,f,uu,uuu,f,u,f,uuuuuuu,d,uuuu,uu",
"u,ui,ui,ud,u,uu,u,,,u,ud,uuui,,ud,uud,uuui,,ud,uuuuuuu,ud,uuu,,u",
"u,u,uu,u,ud,uu,u,uuuuu,ud,,u,,uu,uu,ud,,u,,uu,uuuu,uuuu,,d,uu,d,",
",uu,u,uuuuuuuuuu,,uuuuuuu,uu,uuuuuuuuu,uu,uuuuuuuu,,uuuu,f,u,,,d",
"d,uu,uuuuuuuuuuu,d,uu,uiuu,uuuuu,d,uuuuuuuuuuuuuuu,d,uu,ui,,uid,",
"uuuuuuuuuuuuuuuu,ud,u,uu,u,,uuuu,f,u,,,uuuuuuu,uuu,,u,u,uu,u,,,u",
"uuuuuuuu,uuuuuu,u,u,,uu,,u,d,uu,ui,,uid,uuuuu,d1uuu,ud,uu,,,uuuu",
"uuuuuuuu,,uuuu,d1uu,d,uuuu,ud,u,uu,u,,,,d,uuu,f,u,f,uuuuuuuuuuuu",
"uuu,,,uu,d,uuu,f,uuuud,uuu<..X.XXX...uu,ud,uuui,,ud,uuuuuuuuuuuu",
"uu,uuu,,,ud,u,ui,uuu,,d,uu:$$&$&$$$$$uuu,ud,,u,,uu,uuuuu,uuuu,uu",
"uuu,,,uii,ud,,u,d,u,u,f &$;cccccccccc@$$uuu,uu,uu,uuuuu,d1uuu,uu",
"uuuuuu,,,u,u,uu,f,,,,u xmmBPPPPPPPPPPmmm  uuuuuuu,d,uuu,f,u,f,uu",
"uuuuuuuuuu,,uu,ui,u,d,$xkcMGGGGGGGGGGccz+$u,uuuu,,ud,uuui,,ud,uu",
"uuu,uuuuuu,d,u,u,uu#$#cPFGGGGLGGGGGGGGGGkb$$$uuu,f,ud,,u,,uu,uuu",
"uu,u,uuuu,,ud,uu,3>eeeADLLNttttttttttKLLVAeee33,uiuuu,uu,uuuuuuu",
"uu,u,uuu,,u,ud,uu#%kcxGLGGh99q9099999JGGKGzcc&o,u,uu,uuuuuuuuuuu",
"uu,uu,u,f,uuuuuu$ncGLDFFD0tcccccccccc99FFFLLD/~$u,u,uuuuuuuuuuuu",
"uuu,i,,ud,uuuuuu$ccFGGGggygMMMMMMMMMMyygIGGGL(~$uu,uuuuu,uuuuuuu",
"uuu,if,u,uuuuuuu&ccZGHL09kMGGGGGGGGGGck9KLLGD)~&u,uuuuu,d,uuuuuu",
"uuuuuuuu,uuuuu#%cFGGLG9bkLGGGGGGGGGGGGHc79FGGGP_& ,uuuu,f,u,,,uu",
"uuuuuuu,d,u,,2==nFGGBVwnxLGGGGGGGGGGGGLnrtBSGGP^-=d,uu,ui,,uid,u",
"uu,uuuu,f,,d,$zlLGGG70cSGKGGGKGGGGGGGGKD`)qhGPDP(]&d,u,uu,u,,,uu",
"uu,,uu,ui,ui,$zcGGGqbcGGDGGGGLGGGGGGGLGKjk)U0DGG_]$ud,uu,,,uuuuu",
"uu,d,u,u,uu,u&zcLLG9bxLLLLLLLLLPLLLLLLDPxc(U0LLG_]&uuuuuuuuuuuuu",
"uu,ud,uu,u,uu$ccGGD9cvGGGGGGGGGGGGGGGDGccc(U0GGG_]$uuuuuuuuuuuuu",
"uuu,ud,u,,uuu$ccGGD9cvGGGGGGGGGGGGGGGccccc/U0GGG_]$uuu,uuuuuu,uu",
"uuuu,uuu,d,uu$ccGGD9cvGGGGGGGGGGGGGGGzcccc/U0GGG_]$uuu,,uuuu,d,u",
"uuu,d,uu,ud,u$ccGGD9cvGGGGGGGGGGGGGGkkcccc/U0GGG_]$uuu,d,uuu,f,u",
"uuu,f,u,,,ud,&ccGLG9bxGGGGLLLKGGLLjjkccccc(U9LLP_]&,uu,ud,u,,,,u",
"uu,ui,,uid,uu$zcGGG9bxGLGGGGGGGGDKccccccck(U0GGG_]$u,,u1ud,,,d,u",
",u,uu,u,,,uuu$zcGGZ8zxHSHGGGGKGZHcccccczzc`U9LGG_]$,uuuiuu,u,udu",
"d,uu,,,d,uuuu&ccGGKV0wnSPGGGGGGbnccccbcc^^rhALGG_]*u,,,,,u,uu,ud",
"uuuuuuuuuuuuu$ccGGGG7qcLLGGGGGGccccccccb])0hGGGL_]$,,,uuuuuuuuuu",
"uuuuuuuuu,uuuu$%kFGGDG9bcPGGGKcvccccccz)60ZDGGNu$ ,uid,uuuuuuuuu",
"uuuuuuuuu,,uuua25MMLGSgyyLGPMMcccccccWWRxgLGSW!sp2u,,,uuuuuuuuuu",
"uuuu,,,uu,d,uuu,$ccDGGG90ZLDkkkckkkkk`(0FGGGL(~$,,,u,,uu,uuuuuuu",
"uuu,uuu,,,ud,u,u&bcDGGGZP0U_(((((((((00ZJGGGD(~&u,,,f,u,d1uuuuuu",
"uuuu,,,uii,ud,,u>eeAAALLLtU!!!!!!!!!!ttLLLEEYQT2u,d,d,u,f,uuuuuu",
"uuuuuuu,,,uuu,uu,$$bbkLKGGh9909099999KGGGL(()$O,,,ud,u,ui,uuuuuu",
"uu,uuuuu,d,uuuu,uu,&&$sVLGDLLLGGLLLLLDGP'_&&$,,uii,ud,,u,uuuuuuu",
"uu,,uuuu,f,uuuu,,uu   ]DCCLGGGGGGGGGGDCC']O  uu,,,d,u,uu,uuuuuuu",
"uu,d,uu,u,,,,uu,d,uuu,$~))WGGGGGGGGGG()_.$uuuuuuu,f,,d,uuuuuuuuu",
"uu,ud,u,,d,u,,,,ud,u,ui $$4))))()))))%$$uuuuu,uu,ui,ui,,uuuu,uuu",
"uuu,ud,u,f,,d,ii,ud,,,,o..4]]]]]]]]]]X..uud,ud,u,u,uu,,d1uuu,uuu",
"uuu,,uu,ui,ui,,,u,u,u,,uuu1$$&&&$$&$$uuuuuuduud,,d,u,u,f,u,f,uuu",
"uuu,d,u,u,,u,uuu,d,uu,d,uu,ui,,uid,f,uuuuu,uu,ud,ud,uuui,,ud,uuu",
"uuu,ud,uu,,,uuuu,f,u,,,d,u,uu,u,,,,,,u,d,uuu,f,uu,ud,,u,,uu,uuuu",
"uuuu,ud,uu,d,uu,ui,,uid,d,uu,,,u,uuu,,,ud,u,ui,uuuuu,uu,uuuuuuuu",
"uuuuuuuu,u,ud,u,uu,u,,,uuuuuuuuuu,,,uii,ud,,u,uuuuuuuuuuuuuuuuuu",
"u,uuuuu,d,u,ud,uu,,,uuuu,uuuuuuuuuuu,,,uuu,uu,,uuuuuu,uuuu,uuuuu",
"u,,uuuu,f,u,,,uuuuuuuuuu,,uuuuu,,,,uuuuuu,uuuu,,uuuu,d1uu,,uuuuu",
"u,d,uu,ui,,uid,uuu,uu,uu,d,u,,,uid,,uuuu,d1,uu,d,uuu,f,u,f,uuuuu",
"u,ud,u,uu,u,,,uuu,,uu,,u,ud,u,,,,,,d,uuu,f,u,,,ud,u,ui,,ud,uuu,u",
"uu,ud,uu,,,uu,uu,f,uu,d,u,ud,uuu,,,ud,u,ui,,uii,ud,,u,,u,uuuu,u,",
",uuuuuuuuuu,i,u,ud,uu,ud,uuu,,,,uii,ud,,u,uu,,,uu,,uu,u,d1uuu,ud",
"d,uuuuuuu,u,if,u,,uuuu,,d,uu,d,u,,,uuu,uu,uuuuuuu,d,uuu,f,u,f,,u",
"ud,uuuuuu,,uuuu,d,,uuuu,f,uu,,duuuuuuuuuuuuuuuuuu,ud,uuui,,ud,u,",
"uuuu,,,uu,d,uuu,f,d,uu,ui,,uid,uuuuu,uuuuuuuu,uuuu,ud,,u,,uu,uuu",
"uuu,uuu,,,ud,u,ui,ud,u,uu,u,,,uuuuu,d,u,uuuuu,,uuuuuu,uu,uuuuuuu",
"uuuu,,,uii,ud,,u,u,ud,uu,,,uuuuuuuu,f,,d,uuuu,d,uuuuuuuuuuuuuuuu"
};
