/* XPM */
static char *result[] = {
/* columns rows colors chars-per-pixel */
"64 64 53 1 ",
"  c #060406",
". c #0B090F",
"X c #110F10",
"o c #131313",
"O c #151515",
"+ c #181113",
"@ c #181818",
"# c gray10",
"$ c #1B1B1B",
"% c #1E1E1E",
"& c #202020",
"* c #232323",
"= c #252525",
"- c #282828",
"; c #2A2A2A",
": c gray17",
"> c #2D2D2D",
", c gray19",
"< c #313131",
"1 c #323232",
"2 c gray20",
"3 c #343434",
"4 c gray21",
"5 c gray22",
"6 c #393939",
"7 c #3C3C3C",
"8 c #3E3E3E",
"9 c #74420A",
"0 c #424241",
"q c #504F4C",
"w c #7C754D",
"e c #D75C00",
"r c #D96100",
"t c #D86E02",
"y c #E57901",
"u c #F07D00",
"i c #EA8806",
"p c #F78801",
"a c #F98801",
"s c #FB8E01",
"d c #F79406",
"f c #F99E08",
"g c #FAA506",
"h c #FAA90A",
"j c #FDA90A",
"k c #FCAB0D",
"l c #FBB321",
"z c #E9A43F",
"x c #FBCA58",
"c c #F2E180",
"v c #FFEF8C",
"b c #FFEF90",
"n c #FEF695",
/* pixels */
"###oooXX@ooXOo@o@oooo@#@@O@@o@#@@##OOo@#@@$@O@Ooo@o@O@O@O@@Ooo@@",
"$##oo@OooOO@oo#@@@ooO%@@##@%OO%#$##@@o$%$@%#@o@oo@o@@@Oo$@#Oo@%#",
"##$@@@Ooo@@@@@#@@#@@@$#$#$#%@@#&%$#@@@$#$#%$o@@oO#@@@#@@$##@@@$$",
"$#$@@O@o@O@@#$$@$$#@@*%%%$#@#@$&%%%$@O%%$$%%#$#O@@@@@$@#$$#$@O%%",
"%$%@#$@o@#@@#$@$$%$o@*&%%%#$&@%$&&&$@@$$#%&&$%$##$@$%$$$$&$$#@&%",
"%%%##@O#@#%$$$$@&&$@@%&&%%$$&@*&&&=&%$&%&&*&%$%@%$$@&$%#%&%%#@&&",
"&%%%#$@#$$%#%%*$&*$#$**&&&$%&@*%***&&$**=***&$%@%%$%%%%&**&$%@**",
"*&*$@%$@&&$%$*%%=-&$&-*&&*&&*$=*-=-&$%***==*%@&$$$$%%&*&***%&$**",
"*-*%&*%%$%&%%*-&=-&&%--*&&&&*%--*--&&&***;:=$%*$$%%%&&=%*-=&&%;*",
"==-&%*%%*&**&-=**-**&--=&*&=-&=-;--***---:--&*=%**&**&**---%*%;;",
"=--&%*$%%**&***=-:&*&-;**$*-:*---::=*=:;*::-%**%*=&*==**-,=**%;-",
":--&*=%&&-***--&;:***;:-*-*-,=:;:>;-&->:;;>:-*-*&=*-=--*;--**&::",
">-:=$;$*&&&-*;;-::=**:1---=::=,::,;;**::,1,>*-;&*&*=--:->;:-*&>,",
">;,-*:>;=---=><>,>;-*>1>;;-<%:4>,>>:;-22:3><-;>:-=-:->:->::--=:>",
">><--:1,*->--1,>,,;-*>2,>:;3-:43>2:::-:<44>1:->>;--:;:11;>1;--><",
"<13-;>-3;-::-2,:13;;-<<1-::&+++++++++;333422>:,3;---:<1<>,2>:-,,",
"314:->4,:;::;31333:::<,3>qqq9999999990qq,343->,4>--:><1,,12>:-22",
"3>3>:><,;->;:14,:<::;3443++9ppppppppp+@+2333-<13--,>:<<2123>>;13",
"3,,>><22-:,<;3432<<,;34Xoppfhhhhhhhhhppp+233:>11><3<,3233>2<::33",
",<2,>133,>2<:33333>:   ssjkhhhhhhhhhhkkhs   >,<31>1>>333433,:>31",
"314,33631:<<-8341<>- ..pphhkkkkkkkkkkhhhp...>334,:1-<254133,<,34",
"333,:235,1<1;55436<+tpphhhhirrrrrrrrrjhhhppp+ 3511>,:46354612,44",
"4463,3463312;44240+phhhhhheyppppppppprrhhhhhbn+6<3,2:44244613244",
"644<24451342:46458+phhhhhyupdffffffffuuyhhhhvn+66433<44453023265",
"6863,4652313266862+pghhhkrpdhhhhhhhhhpprhhhhvn+75333145683724176",
"4564147612412564Xopjhhhrrphhhhhhhhhhhhkprjhhhhv+3432266,07654476",
"2644466>1236367.sahhhjepphhhhhhhhhhhhhkhberjhhgbO.54265708564507",
"30457646<31-,68+pphhkkeppjhhhhhhhhhhhhhjbeehhhhvO+65477600764567",
"66764545233<368+pphhtrphhhhhhhhhhhhhhhjkpbvrhhhv@+3,-66600044400",
"806563642444260+pphhtrphhhhhhhhhhhhhhhhppbvrhhhv@o4<>45600085508",
"6384766612-6365+aphhtrphhhhhhhhhhhhhhffppbvrhhhv@+6>435600864406",
"6444455624>4454+aphhrrphhhhhhhhhhhhhhppppbvrhhhv@X46566480063406",
"36624533413::57+aphhtrphhhhhhhhhhhhhpppppbvrhhhv@o<5:57680034466",
"655435483<54365+pphhtrphhhhhhhhhhjpppppppbvrhhhbOo:<:46780046668",
"256<3534312::57+pphhtrphhhhhhhhhhhdppppppbvrhhhv@+,5:47670035564",
"543346562414356+pphhtrphhhhhhhhhhppppppppbvrhhhvO+65466408864387",
"5273556623:6366+pphhhhrpphhhhhhhppppppppverhhhhv@+6<345680764306",
"78535343<433<50q99dhhhdyyshhhhsdppppppaxziikhjwwq04<:54600085407",
"35643446123,<578XXphhhhrrphhhhppppppppavrjkhhg5o><<>-56688834400",
"17446534,1,->47768+pghhhhrhhjpippppppbbrhkhhvv+24>44357500743354",
"<533345,<114136607+pghhhhkezbbbbbbbbbeekhhhhvn+53233153677443487",
"44433445>>23126376oyghghhhrzvccccccccrrhhlkkccO5332,>45306343174",
"474<:352,1,<,445623+tppkhhhirrrrrrrrrhhhhbvvo 4532,<,33471421>55",
"334,,123>>1<-33346,> ++cqhhhjjjhjjjjjhhhv.++33343221>124317,<,33",
"134,>124<<,>-13,38>:400,:vvxhhhhhhhhhcvc>008,2<2><>,-22<123>,>32",
"1<2:-,<3:>>>-43324>:;26XXbvxhhhhhhhhhvvb+44:::23>:-:-33<314>>>21",
",>2:1,4<>->:=5<<::;*><3>:o+wvbvvvvvvv+++4121:<>1:;:*:,1<:1>:::,3",
";,>::><1:-,>-11<,,:-;<4,:,:%+++++++++;<16,:>;>>,>->::<<<1<>:--<>",
",:>;::,>--;-=,<>::::-,2><>:o         -<3>,1,-;:,;::-;<:,>;>:--,<",
">->;-;:;--:=-<1::,;;->11>>;:3*42>1>;:;:>>>1,*:>,*=;;;::>>>>:-*:>",
">>,-*;<;*=--=:>>>>--=::,=:->;>,2>>:-:--::<1,=;;1-**--;:;;:>-=*>>",
"::,*=-*>=*--*::->>--*:::=--,;->>>>;-:=>,><>>-=->****-:>;-;:=-*;;",
";->**=::&*=**:;--;***-:---=,*=1>-,---*-:,>;:**-;***-*-::*-:**&-;",
"-=-*&-;*&****:;;--**&-:-=**:@->=----**<,->-:*=-=&&***;==---**&--",
"-*-&@*@$%&&**=**==&&&-:*&*&=**:--:-*&&-=::;-%*-$&&%*****-**&&%--",
"=**$&&#$%*%%%**$=-%%%*-*%*%*;&;*--**$*===-;*&&*$$&%&&**%***%%$**",
"&**$@$@$$%%%%%%&&=%$$**&%@%**&****=&%&=*&=-*#%&@%&#%&&%%*-%%$$**",
"%*&$#%@#$$$$$*&%%&%$#**&$$$&*$&**&*%%$**&**&#&*@$$$%$$%%&%&#$@**",
"&&%@#$@#@O$@$%*$&&$$@*&%#$$%%@*&*&*$$%%%&**&@@%@@@#@$$%#%%%@$@*%",
"$$$@o@@O@#@@#$@#&&#@#*&$###$$O&&*&*$@$$$%&&%$O$@@@@@#$$@%$$#$@%%",
"$#@@O@oOo@@o##$@#$@O@*%$$$@@$O%$%%%$$@$%%%%%$@@o#@@@###$$$#@@O$%",
"#@@oOoXOoO@@@O@@#$@Oo@$$#@@@$o%$$$&#@@$#$$%$@O@o@OOO#@#o@$@@oo$#",
"@@@oo@oXOOooO@o@@@@oo$$@@#O@$O#@$#%@oo@#o@$@@@@OoOo@@@@O@@@@oo@@",
"@O@ooooXoooooO@o@@Ooo$@@#OOo@oO#@##@oo@@@O@@oOoXoooooOooOOOooX@@"
};
