/* XPM */
static char *result[] = {
/* columns rows colors chars-per-pixel */
"64 64 212 2 ",
"   c #45230D",
".  c #4A280E",
"X  c #4C280F",
"o  c #4D280F",
"O  c #4E2B0F",
"+  c #4D2D0F",
"@  c #452510",
"#  c #462712",
"$  c #4B2913",
"%  c #492A13",
"&  c #4B2B13",
"*  c #4C2810",
"=  c #4D2B11",
"-  c #4D2A13",
";  c #4C2B13",
":  c #4E2A12",
">  c #4F2B13",
",  c #4B2D12",
"<  c #4D2C13",
"1  c #4E2C12",
"2  c #482814",
"3  c #4B2B14",
"4  c #492A16",
"5  c #4C2A14",
"6  c #4D2A14",
"7  c #4D2B14",
"8  c #4C2A15",
"9  c #4D2B15",
"0  c #4E2B14",
"q  c #492C14",
"w  c #4A2C14",
"e  c #4A2D14",
"r  c #4B2D14",
"t  c #4B2C15",
"y  c #4B2D15",
"u  c #492C16",
"i  c #4B2C17",
"p  c #4C2C14",
"a  c #4D2C14",
"s  c #4C2C15",
"d  c #4D2C15",
"f  c #4C2C16",
"g  c #4D2C16",
"h  c #4C2C17",
"j  c #4E2E17",
"k  c #4B2A18",
"l  c #4C2B19",
"z  c #4C2C18",
"x  c #4D2A1F",
"c  c #5E3612",
"v  c #5F3911",
"b  c #5F3913",
"n  c #5F3914",
"m  c #613717",
"M  c #613811",
"N  c #603911",
"B  c #603812",
"V  c #613812",
"C  c #603813",
"Z  c #613813",
"A  c #613A12",
"S  c #613915",
"D  c #603A16",
"F  c #643917",
"G  c #653A17",
"H  c #653D19",
"J  c #673C18",
"K  c #795707",
"L  c #775800",
"P  c #79560A",
"I  c #6C451A",
"U  c #6D4624",
"Y  c #694629",
"T  c #6F4628",
"R  c #6E4629",
"E  c #6B472F",
"W  c #6E442C",
"Q  c #6D462E",
"!  c #6F482F",
"~  c #6E492F",
"^  c #704729",
"/  c #70472C",
"(  c #71472D",
")  c #714829",
"_  c #71482A",
"`  c #70482B",
"'  c #71492B",
"]  c #72492A",
"[  c #72492B",
"{  c #734A2B",
"}  c #74482B",
"|  c #754D2B",
" . c #70482C",
".. c #71482C",
"X. c #71492C",
"o. c #70482D",
"O. c #71492D",
"+. c #73482C",
"@. c #72492C",
"#. c #73492C",
"$. c #73482D",
"%. c #72492D",
"&. c #73492D",
"*. c #714A2C",
"=. c #724A2C",
"-. c #734A2C",
";. c #734A2D",
":. c #71492E",
">. c #71492F",
",. c #73482E",
"<. c #72492E",
"1. c #73492F",
"2. c #704A2E",
"3. c #724A2E",
"4. c #734A2E",
"5. c #724A2F",
"6. c #734A2F",
"7. c #75492C",
"8. c #74492D",
"9. c #75492D",
"0. c #744A2D",
"q. c #74492E",
"w. c #75492E",
"e. c #75482F",
"r. c #744B2F",
"t. c #764B2F",
"y. c #734C2C",
"u. c #724C2F",
"i. c #754C2D",
"p. c #6F4A30",
"a. c #734931",
"s. c #754D33",
"d. c #754A38",
"f. c #895C35",
"g. c #895C37",
"h. c #875C3A",
"j. c #875C3C",
"k. c #8A5D38",
"l. c #895C3B",
"z. c #895D3B",
"x. c #8B5D3B",
"c. c #885F3B",
"v. c #8A5E3B",
"b. c #885D3D",
"n. c #8A5D3C",
"m. c #895E3C",
"M. c #895D3F",
"N. c #8B5D3E",
"B. c #8C5F3E",
"V. c #8C603A",
"C. c #FBF000",
"Z. c #FDF001",
"A. c #FDF300",
"S. c #FFF300",
"D. c #FFF603",
"F. c #FEF208",
"G. c #F5E13B",
"H. c #BF936B",
"J. c #C0956A",
"K. c #C49869",
"L. c #C59A68",
"P. c #C5996A",
"I. c #C49A6A",
"U. c #C3986C",
"Y. c #C4996D",
"T. c #C4996E",
"R. c #C39772",
"E. c #C49770",
"W. c #C69970",
"Q. c #C59A70",
"!. c #C49A71",
"~. c #C69972",
"^. c #C59B73",
"/. c #C69C73",
"(. c #C49976",
"). c #C59C75",
"_. c #CDA17D",
"`. c #F3DF42",
"'. c #F6DF48",
"]. c #FAF2EE",
"[. c #FBF3EF",
"{. c #FFF3EC",
"}. c #FDF4EF",
"|. c gray97",
" X c #FCF4F0",
".X c #FFF7F1",
"XX c #FFFBF7",
"oX c #FFFCF5",
"OX c #FFFCF7",
"+X c #F8F8F8",
"@X c #F9F9F9",
"#X c gray98",
"$X c #FFFCF9",
"%X c #FEFCFA",
"&X c #FFFDFB",
"*X c #FFFEFB",
"=X c #FFFBFF",
"-X c gray99",
";X c #FDFDFD",
":X c #FFFEFC",
">X c #FEFEFD",
",X c #FEFCFE",
"<X c #FFFCFE",
"1X c #FFFCFF",
"2X c #FFFDFF",
"3X c #FDFFFF",
"4X c #FEFEFE",
"5X c #FFFFFE",
"6X c #FEFEFF",
"7X c #FFFEFF",
"8X c #FEFFFF",
"9X c white",
/* pixels */
"9X9X9X9X9X9X9X9X9X9X9X9X9X9X9X9X9X9X9X9X9X9X9X9X9X9X9X9X9X9X9X9X9X9X9X9X9X9X9X9X9X9X9X9X9X9X9X9X9X9X9X9X9X9X9X9X9X9X9X9X9X9X9X9X",
"9X9X9X9X9X9X9X9X9X9X9X9X9X9X9X9X9X9X9X9X9X9X9X9X9X9X9X9X9X9X9X9X9X9X9X9X9X9X9X9X9X9X9X9X9X9X9X9X9X9X9X9X9X9X9X9X9X9X9X9X9X9X9X9X",
"9X9X9X9X9X9X9X9X9X9X9X9X9X9X9X9X9X9X9X9X9X9X9X9X9X9X9X9X9X9X9X9X9X9X9X9X9X9X9X9X9X9X9X9X9X9X9X9X9X9X9X9X9X9X9X9X9X9X9X9X9X9X9X9X",
"9X9X9X9X9X9X9X9X9X9X9X9X9X8X8X9X9X9X9X9X9X9X9X9X9X9X9X9X9X9X9X9X9X9X9X9X9X9X9X9X9X9X9X9X9X9X9X9X9X9X9X9X9X9X9X9X9X9X9X9X9X9X9X9X",
"9X9X9X9X9X9X9X9X9X9X9X9X&X:X8X*X*X*X*X*X*X*X*X*X*X*X*X*X*X*X*X*X*X*X*X*X*X*X*X*X*X*X*X*X*X*X*X*X*X*X*X9X9X9X9X9X9X9X9X9X9X9X9X9X",
"9X9X9X9X9X9X9X9X9X9X9X9X3XOX:X*X9X9X9X9X9X9X9X9X9X9X9X9X9X9X9X9X9X9X9X9X9X9X9X9X9X9X9X9X9X9X9X9X9X9X9X9X9X9X9X9X9X9X9X9X9X9X9X9X",
"9X9X9X9X9X9X9X9X9X9X9X9XoX% 1 < p p p p p p p p p p p p p p p p p p p p p p p p p p p p p p p p p p & ;X4X9X9X9X9X9X9X9X9X9X9X9X",
"9X9X9X9X9X9X9X9X9X9X9X9X<Xe ; & u # i h i i i i i i i i i i i i i i i i i i i i i i i i i i i 4 3 p h 9X9X9X9X9X9X9X9X9X9X9X9X9X",
"9X9X9X9X9X9X9X9X9X9X9X9X=X, - ; . X X o * * * * * * * * * * * * * * * * * * * * * * * * * * *   & s f 9X9X9X9X9X9X9X9X9X9X9X9X9X",
"9X9X9X9X9X9X9X9X9X9X9X9X=X, - ; 2.5.5.6.5.5.5.5.5.5.5.5.5.5.5.5.5.5.5.5.5.5.5.5.5.5.5.5.5.5.5.p.; y d 9X9X9X9X9X9X9X9X9X9X9X9X9X",
"9X9X9X9X9X9X9X9X9X9X9X9X=X, - ; O.3.%.%.%.%.%.%.%.%.%.%.%.%.%.%.%.%.%.%.%.%.%.%.%.%.%.%.%.%.%.:.; y d 9X9X9X9X9X9X9X9X9X9X9X9X9X",
"9X9X9X9X9X9X9X9X9X9X9X9X=Xr = 8 *.-./ y.[ [ [ [ [ [ [ [ [ [ [ [ [ [ [ [ [ [ [ [ [ [ [ { -.%.%.@.w a 9 9X9X9X9X9X9X9X9X9X9X9X9X9X",
"9X9X9X9X9X9X9X9X9X9X9X9X=Xr = 8 *.-...n N N N N N N N N N N N N N N N N N N N N N N N A c [ %.%.w a 9 9X9X9X9X9X9X9X9X9X9X9X9X9X",
"9X9X9X9X9X9X9X9X9X9X9X9X=Xr = 8 :.-.;.n C C C C C C C C C C C C C C C C C C C C C C C N S [ %.%.w a 9 9X9X9X9X9X9X9X9X9X9X9X9X9X",
"9X9X9X9X9X9X9X9X9X9X9X9X=Xr = 8 :.;.;.C M M M M M M M M M M M M M M M M M M M M M M M Z m @.%.%.w a 9 9X9X9X9X9X9X9X9X9X9X9X9X9X",
"9X9X9X9X9X9X9X9X9X9X9X9X=Xr = 8 ,.0.5.l.B.B.B.B.B.B.B.B.B.B.B.B.B.B.B.B.B.B.B.B.B.B.B.v.b.#.O.%.w a 9 9X9X9X9X9X9X9X9X9X9X9X9X9X",
"9X9X9X9X9X9X9X9X9X9X9X9X=Xr = 8 ,.0.o.n.n.n.n.n.n.n.n.n.n.n.n.n.n.n.n.n.n.n.n.n.n.n.n.v.b.#.O.%.w a 9 9X9X9X9X9X9X9X9X9X9X9X9X9X",
"9X9X9X9X9X9X9X9X9X9X9X9X=Xr = 8 ,.0.o.n.n.n.n.n.n.n.n.n.n.n.n.n.n.n.n.n.n.n.n.n.n.n.n.v.b.#.O.%.w a 9 9X9X9X9X9X9X9X9X9X9X9X9X9X",
"9X9X9X9X9X9X9X9X9X9X9X9X=Xr = 8 ,.0.o.n.n.n.n.n.n.n.n.n.n.n.n.n.n.n.n.n.n.n.n.n.n.n.n.x.b.@.%.%.w a 9 9X9X9X9X9X9X9X9X9X9X9X9X9X",
"9X9X9X9X9X9X9X9X9X9X9X9X=Xr = 8 ,.0.o.n.n.n.n.n.n.n.n.n.n.n.n.n.n.n.n.n.n.n.n.n.n.n.n.x.b.@.%.%.w a 9 9X9X9X9X9X9X9X9X9X9X9X9X9X",
"9X9X9X9X9X9X9X9X9X9X9X9X=Xr = 8 ,.0.o.n.n.n.n.n.n.n.n.n.n.n.n.n.n.n.n.n.n.n.n.n.n.n.n.x.b.@.%.%.w a 9 9X9X9X9X9X9X9X9X9X9X9X9X9X",
"9X9X9X9X9X9X9X9X9X9X9X9X=Xr = 8 ,.0.o.n.n.n.n.n.n.n.n.n.n.n.n.n.n.n.n.n.n.n.n.n.n.n.n.x.b.@.%.%.w a 9 9X9X9X9X9X9X9X9X9X9X9X9X9X",
"9X9X9X9X9X9X9X9X9X9X9X9X=Xr = 8 :.;.o.N.n.n.n.n.n.n.n.n.n.n.n.n.n.n.n.n.n.n.n.n.n.n.n.x.j.@.%.%.w a 9 9X9X9X9X9X9X9X9X9X9X9X9X9X",
"9X9X9X9X9X9X9X9X9X9X9X9X=Xr = 8 :.4.` x.z.z.z.z.z.z.z.z.z.z.z.z.z.z.z.z.z.z.z.z.z.z.z.k.h.@.%.%.w a 9 9X9X9X9X9X9X9X9X9X9X9X9X9X",
"9X9X9X9X9X9X9X9X9X9X9X9X=Xr = 8 :.6.' W.I.I.I.I.I.I.I.I.I.I.I.I.I.I.I.I.I.I.I.I.I.I.I.K.^.@.%.@.w a 9 9X9X9X9X9X9X9X9X9X9X9X9X9X",
"9X9X9X9X9X9X9X9X9X9X9X9X=Xr = 8 O.1.[ Q.Y.Y.Y.Y.Y.Y.Y.Y.Y.Y.Y.Y.Y.Y.Y.Y.Y.Y.Y.Y.Y.Y.Y.L./.#.%.@.w a 9 9X9X9X9X9X9X9X9X9X9X9X9X9X",
"9X9X9X9X9X9X9X9X9X9X9X9X=Xr = 8 :.w.t.).Q.Q.Q.Q.Q.Q.Q.Q.Q.Q.Q.Q.Q.Q.Q.Q.Q.Q.Q.Q.Q.Q.Q.T._.+.%.%.w a 9 9X9X9X9X9X9X9X9X9X9X9X9X9X",
"9X9X9X9X9X9X9X9X9X9X9X9X=Xr = 8 :.9.,.] <.<.<.<.<.<.<.<.<.<.<.<.<.<.<.<.<.<.<.<.<.<.<.+.#.%.@.@.w a 9 9X9X9X9X9X9X9X9X9X9X9X9X9X",
"9X9X9X9X9X9X9X9X9X9X9X9X=Xr = 8 :.7.,.%.%.%.%.%.%.%.%.%.%.%.%.%.%.%.%.%.%.%.%.%.%.%.%.%.%.@.[ @.w a 9 9X9X9X9X9X9X9X9X9X9X9X9X9X",
"9X9X9X9X9X9X9X9X9X9X9X9X=Xr = 8 >.6.%.O.%.%.%.%.%.%.%.%.%.%.%.%.%.%.%.%.%.%.%.%.%.%.%.| d.L K P 2 + l 9X9X9X9X9X9X9X9X9X9X9X9X9X",
"9X9X9X9X9X9X9X9X9X9X9X9X=Xr = 8 >.6.%.O.%.%.%.%.%.%.%.%.%.%.%.%.%.%.%.%.%.%.%.%.%.%.%.U W C.Z.D.j x f 9X9X9X9X9X9X9X9X9X9X9X9X9X",
"9X9X9X9X9X9X9X9X9X9X9X9X=Xr = 8 >.6... .4.4.4.4.4.4.4.4.4.4.4.4.4.4.4.4.4.4.4.4.4.4.4.s.( A.S.F.@ + z 9X9X9X9X9X9X9X9X9X9X9X9X9X",
"9X9X9X9X9X9X9X9X9X9X9X9X=Xr = 8 >.6.%.R ) ) ) ) ) ) ) ) ) ) ) ) ) ) ) ) ) ) ) ) ) ) ) i.I `.G.'.k g p 9X9X9X9X9X9X9X9X9X9X9X9X9X",
"9X9X9X9X9X9X9X9X9X9X9X9X=Xr = 8 *.4.4.b V V V V V V V V V V V V V V V V V V V V V V V v D 4.a.:.3 0 s 9X9X9X9X9X9X9X9X9X9X9X9X9X",
"9X9X9X9X9X9X9X9X9X9X9X9X=Xr = 8 *.4.4.b B B B B B B B B B B B B B B B B B B B B B B B N S _ .. .3 0 s 9X9X9X9X9X9X9X9X9X9X9X9X9X",
"9X9X9X9X9X9X9X9X9X9X9X9X=Xr = 8 *.4.r.H G G G G G G G G G G G G G G G G G G G G G G G J F } %.O.3 0 s 9X9X9X9X9X9X9X9X9X9X9X9X9X",
"9X9X9X9X9X9X9X9X9X9X9X9X=Xr = 8 O.4...c.n.n.n.n.n.n.n.n.n.n.n.n.n.n.n.n.n.n.n.n.n.n.n.l.M.$.<.O.3 7 s 9X9X9X9X9X9X9X9X9X9X9X9X9X",
"9X9X9X9X9X9X9X9X9X9X9X9X=Xr = 8 ,.0.o.n.n.n.n.n.n.n.n.n.n.n.n.n.n.n.n.n.n.n.n.n.n.n.n.x.b.@.%.%.w a 9 9X9X9X9X9X9X9X9X9X9X9X9X9X",
"9X9X9X9X9X9X9X9X9X9X9X9X=Xr = 8 ,.0.o.n.n.n.n.n.n.n.n.n.n.n.n.n.n.n.n.n.n.n.n.n.n.n.n.x.b.@.%.%.w a 9 9X9X9X9X9X9X9X9X9X9X9X9X9X",
"9X9X9X9X9X9X9X9X9X9X9X9X=Xr = 8 ,.0.o.n.n.n.n.n.n.n.n.n.n.n.n.n.n.n.n.n.n.n.n.n.n.n.n.x.b.@.%.%.w a 9 9X9X9X9X9X9X9X9X9X9X9X9X9X",
"9X9X9X9X9X9X9X9X9X9X9X9X=Xr = 8 ,.0.o.n.n.n.n.n.n.n.n.n.n.n.n.n.n.n.n.n.n.n.n.n.n.n.n.x.b.@.%.%.w a 9 9X9X9X9X9X9X9X9X9X9X9X9X9X",
"9X9X9X9X9X9X9X9X9X9X9X9X=Xr = 8 ,.0.o.n.n.n.n.n.n.n.n.n.n.n.n.n.n.n.n.n.n.n.n.n.n.n.n.x.b.@.%.%.w a 9 9X9X9X9X9X9X9X9X9X9X9X9X9X",
"9X9X9X9X9X9X9X9X9X9X9X9X=Xr = 8 ,.0.o.n.n.n.n.n.n.n.n.n.n.n.n.n.n.n.n.n.n.n.n.n.n.n.n.x.b.@.%.%.w a 9 9X9X9X9X9X9X9X9X9X9X9X9X9X",
"9X9X9X9X9X9X9X9X9X9X9X9X=Xr = 8 ,.0.o.n.n.n.n.n.n.n.n.n.n.n.n.n.n.n.n.n.n.n.n.n.n.n.n.x.b.@.%.%.w a 9 9X9X9X9X9X9X9X9X9X9X9X9X9X",
"9X9X9X9X9X9X9X9X9X9X9X9X=Xr = 8 X.4.T g.V.V.V.V.V.V.V.V.V.V.V.V.V.V.V.V.V.V.V.V.V.V.V.f.m.%.%.@.w a 9 9X9X9X9X9X9X9X9X9X9X9X9X9X",
"9X9X9X9X9X9X9X9X9X9X9X9X=Xr = 8 X.4.^ ~.I.I.I.I.I.I.I.I.I.I.I.I.I.I.I.I.I.I.I.I.I.I.I.K.!.] %.%.w a 9 9X9X9X9X9X9X9X9X9X9X9X9X9X",
"9X9X9X9X9X9X9X9X9X9X9X9X=Xr = 8 X.4.=.E.Y.U.U.U.U.U.U.U.U.U.U.U.U.U.U.U.U.U.U.U.U.U.U.P./.] %.%.w a 9 9X9X9X9X9X9X9X9X9X9X9X9X9X",
"9X9X9X9X9X9X9X9X9X9X9X9X=Xr = 8 O.4.;.R.J.J.J.J.J.J.J.J.J.J.J.J.J.J.J.J.J.J.J.J.J.J.J.H.(.#.&.@.3 p d 9X9X9X9X9X9X9X9X9X9X9X9X9X",
"9X9X9X9X9X9X9X9X9X9X9X9X=Xr = 8 2.3.X.*. . . . . . . . . . . . . . . . . . . . . . . .O. .O.O.O.6 p t 9X9X9X9X9X9X9X9X9X9X9X9X9X",
"9X9X9X9X9X9X9X9X9X9X9X9X=Xr = 8 ( e.w.8.q.q.q.q.q.q.q.q.q.q.q.q.q.q.q.q.q.q.q.q.q.q.q.q.q.q.q.u.$ p s 9X9X9X9X9X9X9X9X9X9X9X9X9X",
"9X9X9X9X9X9X9X9X9X9X9X9X=Xr = 8 E Q ! ~ ~ ~ ~ ~ ~ ~ ~ ~ ~ ~ ~ ~ ~ ~ ~ ~ ~ ~ ~ ~ ~ ~ ~ ~ ~ ~ ~ Y 9 p 9 9X9X9X9X9X9X9X9X9X9X9X9X9X",
"9X9X9X9X9X9X9X9X9X9X9X9X$Xp O q & & & & & & & & & & & & & & & & & & & & & & & & & & & & & & & & & p p 9X9X9X9X9X9X9X9X9X9X9X9X9X",
"9X9X9X9X9X9X9X9X9X9X9X9XXXi - 5 : : : : : : : : : : : : : : : : : : : : : : : : : : : : : : : : : > > 9X9X9X9X9X9X9X9X9X9X9X9X9X",
"9X9X9X9X9X9X9X9X9X9X9X9X6X.X}.{. X X X X X X X X X X X X X X X X X X X X X X X X X X X X X X X X X[.].9X9X9X9X9X9X9X9X9X9X9X9X9X",
"9X9X9X9X9X9X9X9X9X9X9X9X%X*X3X5X5X5X5X5X5X5X5X5X5X5X5X5X5X5X5X5X5X5X5X5X5X5X5X5X5X5X5X5X5X5X5X5X5X5X>X4X9X9X9X9X9X9X9X9X9X9X9X9X",
"9X9X9X9X9X9X9X9X9X9X9X9X9X9X9X9X9X9X9X9X9X9X9X9X9X9X9X9X9X9X9X9X9X9X9X9X9X9X9X9X9X9X9X9X9X9X9X9X9X9X9X9X9X9X9X9X9X9X9X9X9X9X9X9X",
"9X9X9X9X9X9X9X9X9X9X9X9X9X9X9X9X9X9X9X9X9X9X9X9X9X9X9X9X9X9X9X9X9X9X9X9X9X9X9X9X9X9X9X9X9X9X9X9X9X9X9X9X9X9X9X9X9X9X9X9X9X9X9X9X",
"9X9X9X9X9X9X9X9X9X9X9X9X9X9X9X9X9X9X9X9X9X9X9X9X9X9X9X9X9X9X9X9X9X9X9X9X9X9X9X9X9X9X9X9X9X9X9X9X9X9X9X9X9X9X9X9X9X9X9X9X9X9X9X9X",
"9X9X9X9X9X9X9X9X9X9X9X9X9X9X9X9X9X9X9X9X9X9X9X9X9X9X9X9X9X9X9X9X9X9X9X9X9X9X9X9X9X9X9X9X9X9X9X9X9X9X9X9X9X9X9X9X9X9X9X9X9X9X9X9X",
"9X9X9X9X9X9X9X9X9X9X9X9X9X9X2X2X2X2X2X7X1X9X9X9X9X9X9X9X9X9X9X9X9X9X9X9X9X9X9X9X9X9X9X9X2X2X2X2X2X2X2X2X2X2X9X9X9X9X9X9X9X9X9X9X",
"9X9X9X9X9X9X9X9X9X9X9X9X9X-X1X1X1X1X1X1X1X1X1X1X1X1X,X2X2X2X2X-X9X9X4X2X2X1X1X1X1X1X1X1X1X1X1X1X1X1X1X1X1X1X1X2X9X9X9X9X9X9X9X9X",
"9X9X9X9X9X9X9X9X9X9X9X9X1X1X1X1X1X1X1X1X1X1X1X1X1X1X1X1X1X1X1X1X1X1X1X1X1X1X1X1X1X1X1X1X1X1X1X1X1X1X1X1X1X1X1X2X9X9X9X9X9X9X9X9X",
"9X9X9X9X9X9X9X9X9X9X9X9X1X1X1X1X1X1X1X1X1X1X1X1X1X1X1X1X1X1X1X1X1X1X1X1X1X1X1X1X1X1X1X1X1X1X1X1X1X1X1X1X1X1X1X1X2X9X9X9X9X9X9X9X",
"9X9X9X9X9X9X9X9X9X9X9X9X1X1X1X-X9X9X9X@X@X9X9X9X+X4X9X9X9X;X#X2X1X1X1X1X1X1X1X1X1X1X1X1X1X1X1X|.1X1X1X1X1X2X9X2X2X9X9X9X9X9X9X9X"
};
