/* XPM */
static char *result[] = {
/* columns rows colors chars-per-pixel */
"64 64 24 1 ",
"  c gray8",
". c gray10",
"X c gray12",
"o c #232323",
"O c gray16",
"+ c #2F2F2F",
"@ c gray20",
"# c gray21",
"$ c #3A3A3A",
"% c #543F15",
"& c #745311",
"* c gray25",
"= c gray30",
"- c #5F5F5F",
"; c gray44",
": c #875700",
"> c #8F5D00",
", c #996400",
"< c #A56D00",
"1 c #888888",
"2 c gray60",
"3 c gray66",
"4 c #C3C3C3",
"5 c gray88",
/* pixels */
"...                  .. .     ......  . ....  .  .        .   . ",
"...           . ..   X. ....  X....   ....XX         .  ...   ..",
"...   .  .    .  ... X.... .. .X....  XX..X....  . ...  ....  ..",
"......   .. .........XX.X......XXX... ....X...  .  .........  ..",
"..X  X  ..  ...XXX. .oXXXX..X.XXXXX....X.XXX.X......X....X....XX",
"XXX.X. .. X.....XX.. XXXXX..X.XXXXoX..XXXXoX..X.....X.X.XXXX..XX",
"XXX......XX..XX.XXX..oooXXXXX.oXXooXX.XoXoooX.X ....XX.XXoo.X.oX",
"XXXX..X..X.XXoXXooX.XooXXXXXo.ooooOXX.oooOooX X..oXXXXXXoXXXX.oo",
"oOoXXX..XXXXXooXOoX.XOOooooooXOOOoOXXXooOOOO.Xo.X.XXXoOXoooXoXoo",
"oOOXXo.XXXXoXOooooXXXOOoXoXo=========XOooOOOXoo.XXXoXXooOooXXXOO",
"oOOoXo.XooooXooOOOooXOOOoX==3=33333=3==OoOOOXoOXooXoooooOOoooXOO",
"OOOXXoXXoooooOooO+oooOOO==353=33353=333=$O+OooOXoXoOOOoOOOOooXO+",
"+oOoOOXooOOOOOOoO+oOOO==35=53=35353=33=31=++oOOXoOoOOOOO+OOooo+O",
"@OOOoO+OooOoOO+++OoOo==5333===========344==+OOOOOoooOO+O++OOooO+",
"+O+OO+++ooOoO+@+O@OO=33=33==:::::::::==3135=OO++OOOOO++@O++OOO++",
"+@#OO++@OoOOo@+++@+-2532==:><:<<<<<:<::=;232-O+@+OOOO++++++OOO++",
"#@#OO+@OOO+OO+@+@#-3-2==::<<<:<<<<<:<<<:&=3=5=@#+OO+O+@@++++OO@+",
"++@OO+@+OOOOO@#+=3===:<<<:<<<:<<<<<:<<<,<<:===3=O+O++++@+@#+OO@@",
"#+@OO+@+OO@++@#@=333=:<<<:<<<:<<<<<:<<<,<<:=333=+O+#O#+@##@+++@@",
"O@@++@#@+O@@+@##=353=:<<<:<<<:<<<<<:<<<,<<:=335=+O@OO@@@#@@+O@##",
"@+#@#@$@#O@++#@$==33=:<<<:<<<:<<<<<:<<<,<<:=533=O++O@#$#+#@+++@+",
"##$++###++@+O#@#=3===:<<<:<<<:<<<<<:<<<,<<:=====+++OO####$#+@+#@",
"###@+###+@@#O$$@=333=:<<<:<<<:<<<<<:<<<,<<:=333=@@+++##@###+@+$#",
"@##@@###+@#@+$$$=353=:<<<:<<<:<<<<<:<<<,<<:=333=##@#@#####*@@@$#",
"#$$@O#$#@#O@+$$#=====:<<<:<<<:<<<<<:<<<,<<:=33==##@$+$##$@$##+##",
"$*$#@$#$@@+@@#$$=533=:<<<:<<<:<<<<<:<<<,<<O===3=##@@@@$$*$$#@@$#",
"**###$*$##@#@#*$=353=:<<<:<<<:<<<<<:<<<%oOO=335=$###@##*$$$$##$*",
"*$##@$$$+#@O+$$*=333=:<<<:<<<:<<<<<:<<<%OOO=353=$@####$***$####*",
"#$$##$#$@@#+@$$*=3===:<<<:<<<:<<<<<:<<<,<<O==33=#@@$$$$****$##**",
"#$$#$#$@@++#@$*#==53=:<<<:<<<:<<<<<:<<<,<<:=3===#@$@+$$$$**$$#=*",
"#$##@#$#@@@#@$#$=335=:<<<:<<<:<<<<<:<<<,<<:=333=#@#@##$****$##=$",
"$$###$$$+#+@@$$$=333=:<<<:<<<:<<<<<:<<<,<<:=333=#@###$##***$#@*$",
"@$#+#####@+OO##$===3=:<<<:<<<:<<<<<:<<<,<<:=333=@@#@@#$#***$#$$$",
"#$$#@##$@+##@$$$=35==:<<<:<<<:<<<<<:<<<,<<:=3===@@O++#$****#$#$$",
"@###@$#$#+#@+$$$=333=:<<OOO<<:<<<<<:<<<,<<:==33=@@+@O#$$*=*#$@$$",
"###+###$@#+@+$+*=333=:<<<O<<<:<<<<<:<<<,<<:=335=@@#$#$$@***$+#*#",
"#$#@$$$$+@+#@$#$===3=:<<<O<<<:<<<<<:<<<,<<:=333=#+#@##$$***$##*#",
"@*$###$@@@##@$*$=33==:<<OOO<<:<<<<<:<<<,<<:=====#+$+###$***$$#*$",
"#*##*##+@@#++#$$=333=:<O<:<O<:<<<<<:<<<,<<:=333=$+@O+#$$$$*###**",
"@+##$###++@O+#$*=333=:<O<:<O<:<<<<<:<<<,<<:=333=#++##$*#***@##$#",
"######$@++@#+#$$=====:<<OOO<<:<<<<<:<<<,<<:=53==#@@###@#**$@@##$",
"###+@#$#++@#+@$#=333=:<<<:<<<:<<<<<:<<<,<<:=113=#@@+####*###@###",
"###@@@##O+++++##=433=:<<<:<<<:<<<<<:<<<,<<:=334=#++++###$@#@@+#$",
"##@++@+#++O+O##@=5;;=:<<<:<<<:<<<<<:<<<,<<:=;34=#@+#+#@@#+$@++##",
"@##++@@#+++@O@##==33=:<<<:<<<:<<<<<:<<<,<<O=3===@+O++@++@##+++@#",
"@@@+O@@@+@++O@#@=333=:<<<:<<<:<<<<<:<<<%OOO=333=++OOo@#@#@@+++#@",
"@+@OO+#@+O++O#@+=335=:<<<:<<<:<<<<<:<<<%OOO=335=OOOoo@@@+@+OOO@+",
"+O+O++@@OO++O@++===5=:<<<:<<<:<<<<<:<<<,<<O==35=+OO++@++@@+OOO+O",
"OOOOOO++Oo++o+@+=33==:<<<:<<<:<<<<<:<<<,<<:=3===O++OO@+++OO+oO++",
"+O+OOO+OOo+OO+@+=333=:<<<:<<<:<<<<<:<<<,<<:=333=ooO+O+OOO@+OOOO+",
"+++OoO@OOOO.o++O=353=:<<<:<<<:<<<<<:<<<,<<:=333=OooOO+++OOOOOo+O",
"OO+oOOOOOoOOoO+O=====:<<<:<<<:<<<<<:<<<,<<:=35==OOoOo++OO++oOoOO",
"OO+oooOOooOoXOOO=333=:<<<:<<<:<<<<<:<<<,<<:===3=ooooOO+OOOOooXOO",
"OoOoXOOOXoOXo++O=333=:<<<:<<<:<<<<<:<<<,<<:=335=oooooO+OOoOooXoO",
"OooX.oOXXXXoXooO==33=:<<<:<<<:<<<<<:<<<,<<:=353=oXooXOooOoooXXOO",
"Ooo.XX..XoXXXoo.=5===:<<<:<<<:<<<<<:<<<,<<:==53=XXXXXooXoXoX.XoO",
"Xoo..X...XXXXXXo=333=::::::::::::::::::::::=3===XXXXooXXoooXX.oo",
"XXo..X.......XXX=533========================335=XX.XXX.XooX...oo",
"XXX..X.......XXX================================.....XX.X.X.. oo",
"XXX. .  ... .X..oo...XX.......XXXXo...XXXooX .. ......X.XX... XX",
".... . ..   ..X .X. .XX..X .. X.XXX.. .XXXXX...  .  .....X... .X",
"....      .. .. ..   .X...... X...X.. ......... .   ... ....  ..",
"...  .      ..  ..   ..... .. ....X.  ....X. ..  .  . . ...   ..",
".              ...   .....  . . ....   .. ..        .         .."
};
