/* XPM */
static char *result[] = {
/* columns rows colors chars-per-pixel */
"64 64 25 1 ",
"  c #131313",
". c #181818",
"X c #1B1B1B",
"o c gray12",
"O c #232323",
"+ c gray16",
"@ c #2F2F2F",
"# c gray20",
"$ c #373737",
"% c gray23",
"& c #414141",
"* c gray30",
"= c gray32",
"- c gray37",
"; c #656565",
": c gray43",
"> c #7C7C7C",
", c #875700",
"< c #A56D00",
"1 c #8E8E8E",
"2 c gray59",
"3 c #9F9F9F",
"4 c gray66",
"5 c gray78",
"6 c gray88",
/* pixels */
" .    .                   ....    ..         .X.. .  .     ..   ",
" X .. .     .            .    ..  .X....  ...XX.     .          ",
".X.X..X        .. . .X   X..XX..  oXXXo...XX.XXX .     . . .... ",
".X.o..X .   .   . ...X.  oXXXX.X. XXXXo.. XXXoXX. .. .X. ...XX..",
" . .XXo...  . X  .. XX.. oXXX.. X.oXooXX. X.oXoX.X... ...X. ooX.",
"  XoXoo..X .... .XXXXoX. oXXoXX.XXoXoooXX..oXooo.oX.X... XXXXoXX",
".oXXooo Xo XX...XXXoooX. oooooXXoXOooooXoXooooOoXoo.XoXXXXooooXX",
"XooOoOoXXX.XXXooXooXooX.X%********OOooooo.oooOOoooX.o.XXXooXoooX",
"oOooOOOXXX.XoXXXooOXOooX*1>:4444*4**O+OooXOoOOOOoooX.ooXoOOOoooo",
"oOOOOOooooX.oXoXoOoo+O**45>:4464*444**OoooOOOO++ooOXoooXooOXOOOo",
"O+OOOOOooOoXooXoOO+o**46*5>:6464*44*44**OO++OO+OOoOXooOoOoOo+OOo",
"O+OOOO+oo+ooOoooo+O**6444**********4464**O++O+++OO+oOOoOOOOO++Oo",
"O@+O+O+ooOXooOoOO+*44*44*>2>2222-2**44*46*+++@++,,,,,OOOO+O+@++O",
"O++++++OOOoo++OOO*4644**222>2222-222**4444*@@*,,,<<<,,+++++++++O",
"O@O+@+#OO+@+OO++*4*4**2-222>2222-2222-**4*6**,,<,<<<,,,,+@+@@+++",
"O@++@@#+O+@+O++*644*222---------------22***,,,<<,<<<,<<,,@#@@@@+",
"++++@@@++@@@+O*4***22---2>222-2222-2---22*,<<,<<,<<<,<<,,@#@@+@@",
"+@+##@#+@@@#++*454*>-2222>222-2222-2222->*,<<,<<,<<<,<<,,@##@##@",
"+#@@@+#@O@##++*>54*2-222>:>>>->>>>->>22-2*,<<,<<,<<<,<<,,@$@@##+",
"@#@@#@#@+@#@++*:1>*2->>>>>::>:>>-:>:->>-2*,<<,<<,<<<,<<,,####+#+",
"@$@#+@@@@@$#@@*444*--22-222>2222-2222-2--*,<<,<<,<<<,<<,,#######",
"@#@#@@#@+#$#@@*464*2222-222>2222-2222-222*,<<,<<,<<<,<<,,#$#%##@",
"#$###$$@##%#@+*****2222---------------222*,<<,<<,<<<,<<,,$$##$#@",
"@$@##$$@#$$$##*644*22---2>222-2222-2---22*+<<,<<,<<<,<<,,%$%$$%@",
"@#@##$$##$$$#@*464*--2222>222-2222-2222--*++<,<<,<<<,<<,,$#$$#%#",
"$%#$$$$#$$$##@*444*2-2222>222-2222-2222-2*+++,<<,<<<,<<,,$#$%#&$",
"#%$%%$$$#$%%@#*4***2-222-------------22-2*+<<,<<,<<<,<<,,$$$%%$#",
"#%&$%%$#$$$$##**64*2----222>2222-222----2*,<<,<<,<<<,<<,,$$%&%&$",
"#%#$$&%$#$%$@#*446*--22-222>2222-2222-2--*,<<,<<,<<<,<<,,%$$&%&$",
"$&&%$%%$$%$$@#*444*2222-222>2222-2222-222*,<<,<<,<<<,<<,,%&%&&%$",
"#%%%$%%$%$$%##***4*2222---------------222*,<<,<<,<<<,<<,,$$%%%&%",
"#&#&#&&$$%%$#$*46**22---2>222-2222-2---22*,<<,<<,<<<,<<,,$$%&&&%",
"#&#$%%$#$%%$#$*444*--2222>222-2222-2222--*,<<,<<,<<<,<<,,$$%&&&%",
"#$$$$$%@$%#$$#*444*2-2222>222-2222-2222-2*,<<,<<,<<<,<<,,$%#&&&%",
"#%%$#$%$$$$$#$***4*2-222-------------22-2*,<<,<<,<<<,<<,,$%%&&&%",
"#%%$$%$$$$$$##*44**2----222>2222-222----2*,<<,<<,<<<,<<,,$%%%&&%",
"#$$%#$%@$$#$$$*444*--22-222>2222-2222-2--*,<<,<<,<<O+<<,,$%#%%&%",
"@&$$$$%#%%$%@$*444*2222-222>2222-2222-222*,<<,<<,<<<+O<,,$$$&&&$",
"@%#%#@&$@$%$##*****2222---------------222*,<<,<<,<<<+<<,,%%%&&&%",
"#&%%$%$$$$$$#$*444*22---2>222-2222-2---22*,<<,<<,<<++<<,,$$$%%$%",
"@%$%$$$$#$#$##*444*--2222>222-2222-2222--*,<<,<<,<+<,+<,,%%$%&%#",
"#%#$$%$#@#%$@#*644*2-2222>222-2222-2222-2*,<<,<<,<+<,+<,,$$$&%%$",
"@%%#%$$##$$$@#*6***2-222--------------2-2*,<<,<<,<<++<<,,$#$&$%$",
"#$#%$$##@$#$@@**44*2----222>2222-222----2*+<<,<<,<<<,<<,,#$$$$$#",
"#$########$@@@*444*--22-222>2222-2222-2--*++<,<<,<<<,<<,,$@$$#%#",
"+#@@@#$####@@@*446*2222-222>2222-2222-222*+++,<<,<<<,<<,,##@#@%@",
"+#+@###@+@##@@***6*2222---------------222*+<<,<<,<<<,<<,,##$$#$+",
"##@#@@#+@@##++*44**22---2>222-2222-2---22*,<<,<<,<<<,<<,,###@##+",
"+@@#+@@@@@#@@@*444*--2222>222-2222-222---*,<<,<<,<<<,<<,,@@###@@",
"+@@@+@@+++#@+@*141*2-22>>:>>>=>>>>->>>>-2*,<<,<<,<<<,<<,,#@@@@++",
"+@++@+++O+@+++*---*1-11=--------**===-=-1*,<<,<<,<<<,<<,,@+@@+@+",
"+@+@@O@+O++@OO*444****=>21134442==::>1:***,<<,<<,<<<,<<,,+@@+@@+",
"++O+@@++++@@OO**44*444*******1144212**>*:*,<<,<<,<<<,<<,,+@@++++",
"OO++++@OO+++Oo*6==*4545433433====*=**-**;*,<<,<<,<<<,<<,,@+@++++",
"o++O++@OO+++oo*433*444445544423322322=**=*,<<,<<,<<<,<<,,+++O++O",
"oO+O+O+OXO+OOo*644************************,,<,<<,<<<,<<,,++++++O",
"oOOOOO+ooOXooo****************************==,,<<,<<<,<<,,OOO+O+o",
"oOOOOo+XXo.XXoXoooooO+ooXOOOoXoO+o+o+O+OXOOO*,,<,<<<,<<,,OoOOooo",
"ooooooOXXo.Xoo.XXooooOXo.OOOooooOX+oOoOOooOOo**,,<<<,<<,,oooOOoX",
"XooXooo.Xo..XX.XXooXoOoX.OOoXoXoo.ooOOOoXoOOXo***,,<,<<,,XoXoooX",
"Xoooooo.XX..X.X.XoXXooX..oOXXoXXoXOoOOoXXXooooOoX**,,<<,,Xo oooX",
".o.XXoo.... .....XX.oX..Xooo.XXXX.oXoOoX..XXoooXX X**,,,,XXXXXX.",
".XXXXXo... .  ...XX.XX...ooXXXX.X oXXooXX XXXXoX... .****X. XXX.",
" X.X.XX ..  . . .....X   XXoXX..X.XXoXX. ..XXXXX  .     ..X..X. "
};
