/* XPM */
static char *result[] = {
/* columns rows colors chars-per-pixel */
"64 64 73 1 ",
"  c #3E2A04",
". c #462002",
"X c #442303",
"o c #472205",
"O c #4A2003",
"+ c #492202",
"@ c #4C2103",
"# c #4E2403",
"$ c #492105",
"% c #492304",
"& c #492307",
"* c #442208",
"= c #542A07",
"- c #403609",
"; c #5F3102",
": c #603302",
"> c #603204",
", c #623204",
"< c #66370C",
"1 c #6A3D11",
"2 c #3A4008",
"3 c #2A530D",
"4 c #0D6B03",
"5 c #116703",
"6 c #1B6006",
"7 c #127A04",
"8 c #3E7A1D",
"9 c #6F4116",
"0 c #72421F",
"q c #74451D",
"w c #694021",
"e c #6E4425",
"r c #714423",
"t c #734523",
"y c #744420",
"u c #744522",
"i c #724527",
"p c #744524",
"a c #764424",
"s c #774524",
"d c #744724",
"f c #744427",
"g c #774922",
"h c #7E4F27",
"j c #744728",
"k c #8B5C35",
"l c #8C5D34",
"z c #8C5D36",
"x c #8D5F36",
"c c #8D5E39",
"v c #996C42",
"b c #2F870E",
"n c #2A900B",
"m c #269E0A",
"M c #1FAA06",
"N c #1BB105",
"B c #1FBF07",
"V c #2EB712",
"C c #23CD0A",
"Z c #27DB0C",
"A c #C5AE1E",
"S c #FDF202",
"D c #F6E721",
"F c #AF835A",
"G c #B88D63",
"H c #C69B6A",
"J c #C79D6B",
"K c #C69B6D",
"L c #C79C6E",
"P c #C49A72",
"I c #C89C72",
"U c #BCDEB0",
"Y c #F5F2E8",
/* pixels */
"NNNNNNN444NNN4NN4NNNNNNNNNNNN4C4NN4NB44NBC4NN4NC4NNNNNNNNNNNNNNN",
"NNNNNNNNNNNNNN4NNNNNNNNNNNNNN4NC4N4NN4N444NNNN4NC4NNNNNNNNNNNNNN",
"NNN4NNN4UYVMM5C5MMMMMMMMMMMM5M5MC5MM555MM5MMMM5MMMMMMN4NNNNNNNNN",
"NN4C4N448%O@$$$$$$$$$$$$$$$$$$$$$$$$$$$$$$$$$$$$$$%%-N44NNNNNNNN",
"NN4Z44C4C%Oo*&&&&&&&&&&&&&&&&&&&&&&&&&&&&&&&&&&&o..$-N4C4NNNN4NN",
"N4NB4NB4N%Oo.@@@@@@#&@##&@@@@@@@@@@@#@@@@&@@@@@@&%+$-N4NC4NNN44N",
"N4N4NN4N4%Oowerrfeeeeeeeeeeeeeeeeeeeeeeeeeeeeeeee@%$-NN44C4NN4C4",
"4NN4N4NNN%Oordppppppppppppppppppppppppppppppppppi@oo-NNN4Z4N444C",
"C4NN4NNNN%@oriffppppppppppppppppppppppppppppppppp@o% NN4NB44NBC4",
"NNNNNNNNN%@oeudtduuuuuuuuuuuuuuuuuuuuuuuuuuuudpppOo@-4N4NN4N444N",
"NNNNNNNN4%@oedpu;:::::::::::::::::::::::::::;1uppOo@-C4NN444NNNN",
"NNNNNNNN4%@oedpu>::::::::::::::::::::::::::::1uppOo@-NNNNNNNNNNN",
"NNN444NN4%@oedpu>:::::::::::::::::::::::::::>1pppOo@-NNNNNNNNNNN",
"NN4NNN444%@oesrg,,<,,<,<,<,<,<,<,,,,,,<,<,<,<1pdpOo@-NNN4NNNN4NN",
"NNN444NBB%@oesftzxxxxxxxxxxxxxxxxxxxxxxxxxxxkhpdpOo@-NN4C7NNN4NN",
"NNNNNN444%@oesftczzzzzzzzzzzzzzzzzzzzzzzzzzzchpdpOo@-NN4Z4N4Z4NN",
"NNNNNNNNN%@oesftzzzzzzzzzzzzzzzzzzzzzzzzzzzzkhpdpOo@ NNNB44NC4NN",
"NNN4NNNNN%@oesftzzzzzzzzzzzzzzzzzzzzzzzzzzzzkhpdpOo@244N44NN4NNN",
"NN4N4NNNN%@oesftzzzzzzzzzzzzzzzzzzzzzzzzzzzzkhpppOo@-4NN4NNNNNNN",
"NN4N4NNN4%@oesftzzzzzzzzzzzzzzzzzzzzzzzzzzzzkhpppOo@ NNNNNNNNNNN",
"NN4NN4N4Z%@oesftzzzzzzzzzzzzzzzzzzzzzzzzzzzzkhpppOo@-NNNNNNNNNNN",
"NNN4B44NC%@oesftzzzzzzzzzzzzzzzzzzzzzzzzzzzzkhpppOo@-NNN4NNNNNNN",
"NNN4BZ4N4%@oesipzlllllllllllllllllllllllllllkhpppOo@-NN4C4NNNNNN",
"NNNNNNNN4%@oesipczzzzzzzzzzzzzzzzzzzzzzzzzzzkhpppOo@-NN4Z4N444NN",
"NNNNNNN4C%@oesiuxxxxxxxxxxxxxxxxxxxxxxxxxxxxlhpppOo@-N4NB44NBC4N",
"NN4NNNN4Z%@oesiqLJJJJJJJJJJJJJJJJJJJJJJJJJJJKvpppOo@ N4NN4N444NN",
"NN44NN4NB%@oesiqIKKKKKKKKKKKKKKKKKKKKKKKKKKKHvpppOo@-4NN444NNNNN",
"NN4C4N4N4%@oepayPHKKHHKKKHKKKHHKKHHKKHHKKKHKIvappOo@-NNNNNNNNNNN",
"NN4NC4NN4%@oeph0hhhhhhhhhhhhhhhhhhhhhhhhhhhhhspppOo@-NNNNNNNNNNN",
"NNN4NC4N4%@oepspupffppffpppffppffppffppffpppappupOo@-N4NNNNNN4NN",
"NNNN4NNN4%@oepafppppppppppppppppppppppppppppppuupOo@-N44NNNN4C4N",
"NNN4C4NN4%@oedafpaaaaaaaaaaaaaaaaaaaaaaaaaauj000tOX@-N4C4NNN4Z4N",
"NNN4Z4N44%@oejppdpppppppppppppppppppppppppppjASSS%*@-N4NC4N4444N",
"NN4NB44NB%@oejppdfffffffffffffffffffffffffff0ASSS#.@ 4N7NC444C4N",
"4N4NN4N44%@oejptdtttttttttttttttttttttttttttgASSS=o@-NNBNN4N4NCN",
"C4NN444C4%@oejdpryyyyyyyyyyyyyyyyyyyyyyyyyyyrADDD%*@ 4444N4NN4NC",
"NNNNNNNNN%@oedfu>,,,,,,,,,,,,,,,,,,,,,,,,,,>:1ffrOo@ 4NNNNNNNNNN",
"NNNNNNNNN%@oedfu>::::::::::::::::::::::::::::1pfeO$@-C4NNNNNNNNN",
"NNNNNNNNN%@oedru:;;;;;;;;;;;;;;;;;;;;;;;;;;;,9upd@$@ 4NNNNNNNNNN",
"NNNN444NN%@oedfrhhhhhhhhhhhhhhhhhhhhhhhhhhhhhhapd@$@ 4NN4NNNNNNN",
"NNN4NNN44%@oeufuxzzzzzzzzzzzzzzzzzzzzzzzzzzzzhapdOo@24N4C7NNNNNN",
"NNNN444NB%@oesftzzzzzzzzzzzzzzzzzzzzzzzzzzzzkhpppOo@-4N4Z4NNNNNN",
"NNNNNNN44%@oesftzzzzzzzzzzzzzzzzzzzzzzzzzzzzkhpppOo@ N4NB4NNNNNN",
"NN4NNNNN4%@oesftzzzzzzzzzzzzzzzzzzzzzzzzzzzzkhpppOo@244N4NNNNNNN",
"NN44NNNN4%@oesftzzzzzzzzzzzzzzzzzzzzzzzzzzzzkhpppOo@-4NN4NNNNNNN",
"NN4C4NN4N%@oesftzzzzzzzzzzzzzzzzzzzzzzzzzzzzkhpppOo@ C4NNNNNNNNN",
"NN4NC4N44%@oesftzzzzzzzzzzzzzzzzzzzzzzzzzzzzkhpppOo@-B44NNNN4NNN",
"NNN4NC4N4%@oesftzzzzzzzzzzzzzzzzzzzzzzzzzzzzkhpppOo@-44C7NNN4NNN",
"NNN44NN4N%@oesftzzzzzzzzzzzzzzzzzzzzzzzzzzzzkhpppOo@ N4Z4N4Z4NNN",
"NNN4C4N4N%@oesitzzzzzzzzzzzzzzzzzzzzzzzzzzzzkhpppOo@-NNB44NC4NNN",
"NNN4NC4NN%@oesrgFFFGFFGFFGFFGFFGFFGFFGFFGFFGFcpppOo@ 4N44NN4NNNN",
"NNNN4NC4N%@oesiuPJJJJJJJJJJJJJJJJJJJJJJJJJJJHvuppOo@ NN4NNNNNNNN",
"NNNNNNNN4%@oesiqIKLKKKKKKKKKKKKKKKKKKKKKKKKKKvuppOo@-NNNNNNNNNNN",
"N4NNNNN4C%@oesryILLLLLLLLLLLLLLLLLLLLLLLLLLLIvuppOo@-4NNNN4NNNNN",
"N44NNNN4Z%@oefapu000yy0yyyyyy00000yyyyy00yy0yaaad@oo C7NN44NNNNN",
"N4C4NN4NB%@oedpddtttttttttttttttttttttttttttttttd@$o Z4N4Z4NNNNN",
"N4NC4N4NN%@oejssasssssssssssssssssssssssssssaaaadO$+-B44NC4NNN4N",
"NN4NC4NN4%@owjifiiiiiiiiiiiiiiiiiiiiiiiiiiiiiiiidO$+-44N4NNNN4N4",
"4NNNNNNNN%@o%%%%%%%%%%%%%%%%%%%%%%%%%%%%%%%%%%%%#@.+-4N4C7NNN4NC",
"C4NNNNNNNo+*****************************************-NN4Z4N4Z44N",
"NC4NNNNNN@@@%%%%%%%%%%%%%%%%%%%%%%%%%%%%%%%%%%%%%%$$ NNNB44NC4N4",
"NNNN444NN3m6bnn3V3m6nn3nn66nmm6nnnnn6nnnnnnnn6nnnn6bm44N44NN4NNN",
"NNN4NNN444NC4N4NB4NC4N4NN4N444NNNNN4C4N4NNNNN44NNNNNN4NN4NNNNNNN",
"NNNN444NBB4NC44N4N4NC4NN444NNNNNNNN4Z44C4NNNN4C4NNNNNNNNNNNNNNNN"
};
