/* XPM */
static char *result[] = {
/* columns rows colors chars-per-pixel */
"64 64 192 2 ",
"   c black",
".  c #261507",
"X  c #281507",
"o  c #2A1607",
"O  c #2C1707",
"+  c #2E1707",
"@  c #301807",
"#  c #321907",
"$  c #331907",
"%  c #341907",
"&  c #341A07",
"*  c #351A07",
"=  c #3D1901",
"-  c #331908",
";  c gray19",
":  c #431D02",
">  c #441E02",
",  c #451F03",
"<  c #462003",
"1  c #472003",
"2  c #452303",
"3  c #472202",
"4  c #462303",
"5  c #472104",
"6  c #472205",
"7  c #452207",
"8  c #462206",
"9  c #472206",
"0  c #462207",
"q  c #482103",
"w  c #492103",
"e  c #4A2003",
"r  c #4B2003",
"t  c #4A2103",
"y  c #482202",
"u  c #482203",
"i  c #492203",
"p  c #492303",
"a  c #4A2202",
"s  c #4B2202",
"d  c #4C2302",
"f  c #4C2303",
"g  c #4D2403",
"h  c #492104",
"j  c #4A2104",
"k  c #482204",
"l  c #482205",
"z  c #492205",
"x  c #4E2404",
"c  c #442208",
"v  c #482913",
"b  c #4B301D",
"n  c #4C311F",
"m  c #603103",
"M  c #613103",
"N  c #603202",
"B  c #603302",
"V  c #603203",
"C  c #613203",
"Z  c #613303",
"A  c #613204",
"S  c #603305",
"D  c #623204",
"F  c #643509",
"G  c #653509",
"H  c #653609",
"J  c #65360A",
"K  c #693A0E",
"L  c #6B3E12",
"P  c #6C3E11",
"I  c #6C3E12",
"U  c #6D3F13",
"Y  c #6D3F14",
"T  c #633918",
"R  c #633919",
"E  c #633A19",
"W  c #643A1A",
"Q  c #653B1B",
"!  c #653C1B",
"~  c #663C1C",
"^  c #663D1C",
"/  c #673D1D",
"(  c #683F1E",
")  c #6D4404",
"_  c #734B07",
"`  c #754E08",
"'  c #71480C",
"]  c #795406",
"[  c #6E4015",
"{  c #6F4016",
"}  c #6F4117",
"|  c #6F431F",
" . c #734716",
".. c #704218",
"X. c #71431B",
"o. c #71431C",
"O. c #71431D",
"+. c #70431E",
"@. c #70431F",
"#. c #73441D",
"$. c #72441F",
"%. c #73441F",
"&. c #6F4320",
"*. c #6E4321",
"=. c #6E4322",
"-. c #714421",
";. c #724420",
":. c #724421",
">. c #734421",
",. c #714523",
"<. c #744520",
"1. c #754520",
"2. c #754521",
"3. c #744522",
"4. c #754522",
"5. c #744523",
"6. c #754722",
"7. c #704524",
"8. c #714524",
"9. c #734624",
"0. c #734724",
"q. c #734427",
"w. c #724527",
"e. c #734627",
"r. c #744524",
"t. c #754524",
"y. c #744425",
"u. c #744525",
"i. c #764424",
"p. c #744624",
"a. c #744724",
"s. c #744725",
"d. c #744426",
"f. c #744526",
"g. c #744427",
"h. c #744726",
"j. c #744727",
"k. c #784A24",
"l. c #744628",
"z. c #744728",
"x. c #555555",
"c. c #8B5C34",
"v. c #8B5C35",
"b. c #8B5D35",
"n. c #8C5D35",
"m. c #8C5D36",
"M. c #8C5E36",
"N. c #8D5E36",
"B. c #8D5E37",
"V. c #8D5F37",
"C. c #8F6138",
"Z. c #92643B",
"A. c #93653B",
"S. c #FBEF0B",
"D. c #FDF204",
"F. c #FCF107",
"G. c #FCF008",
"H. c #C29768",
"J. c #C29769",
"K. c #C1966A",
"L. c #C2976A",
"P. c #C2976C",
"I. c #C2976D",
"U. c #C3986A",
"Y. c #C4996A",
"T. c #C59B6A",
"R. c #C69C6B",
"E. c #C3996D",
"W. c #C3986E",
"Q. c #C4996D",
"!. c #C49A6C",
"~. c #C59A6C",
"^. c #C59A6D",
"/. c #C69B6C",
"(. c #C69B6D",
"). c #C4996F",
"_. c #C59A6F",
"`. c #C69B6E",
"'. c #C69B6F",
"]. c #C69C6C",
"[. c #C79D6C",
"{. c #C79C6D",
"}. c #C69C6E",
"|. c #C79D6F",
" X c #C69B70",
".X c #C69C70",
"XX c #C79C70",
"oX c #C79C71",
"OX c #C89D71",
"+X c #C89D72",
"@X c #ACACAC",
"#X c #EFE9E3",
/* pixels */
"                                                                                                                                ",
"  @X@Xx.x.x.x.x.x.x.x.x.x.x.x.x.  @X@Xx.x.x.x.x.x.x.x.x.x.x.x.  @X@Xx.x.x.x.x.x.x.x.x.x.x.x.x.@X@Xx.x.x.x.x.x.x.x.x.x.x.x.x.x.  ",
"  @Xx.x.x.x.x.x.x.x.x.x.x.x.x.x.  @Xx.x.x.x.x.x.x.x.x.x.x.x.x.  @Xx.x.x.x.x.x.x.x.x.x.x.x.x.x.@X@Xx.x.x.x.x.x.x.x.x.x.x.x.x.x.  ",
"  x.x.x.x.x.x.x.x.x.x.x.x.x.x.;   x.x.x.x.x.x.x.x.x.x.x.x.x.x.  @Xx.x.x.x.x.x.x.x.x.x.x.x.x.x.@Xx.x.x.x.x.x.x.x.x.x.x.x.x.x.x.  ",
"  x.x.x.x.x.x.x.x.x.x.x.x.x.x.;   x.x.x.x.x.x.x.x.x.x.x.x.x.x.  @Xx.x.x.x.x.x.x.x.x.x.x.x.x.; @Xx.x.x.x.x.x.x.x.x.x.x.x.x.x.x.  ",
"  x.x.x.x.x.x.x.x.x.x.x.x.x.x.;   x.x.x.x.x.x.x.x.x.x.x.x.x.x.  x.x.x.x.x.x.x.x.x.x.x.x.x.x.; x.x.x.x.x.x.x.x.x.x.x.x.x.x.x.x.  ",
"  x.x.x.x.x.x.x.x.x.x.x.x.x.x.;   x.x.x.x.x.x.x.x.x.x.x.x.x.;   x.x.x.x.x.x.x.x.x.x.x.x.x.; ; x.x.x.x.x.x.x.x.x.x.x.x.x.x.x.;   ",
"  x.x.x.x.x.x.x.x.x.x.x.x.x.; ;   x.x.x.x.x.x.x.x.x.x.x.x.; ;   x.x.x.x.x.x.x.x.x.x.x.x.x.; ; x.x.x.x.x.x.x.x.x.x.x.x.x.x.; ;   ",
"                        #Xn b v * - $ % $ X # # . # $ $ $ $ $ $ $ $ $ $ $ X $ $ $ . @ o O + X $ & $                             ",
"@Xx.x.x.x.x.x.x.  @X@X@X@Xc a g z z z z z z z z z z z z z z z z z z z z z z z z z z z z z z z z z z x.x.x.x.x.  @X@X@X@X@X@X@X@X",
"x.x.x.x.x.x.x.x.  @Xx.x.x.u a a z z e z z z z z z z z z z z z z z z z z z z z z z z z z z z 5 w w < x.x.x.x.x.  @Xx.x.x.x.x.x.x.",
"x.x.x.x.x.x.x.x.  @Xx.x.x.i a r / ^ ! Q ~ R R T Q T E R W W W Q / ^ ^ W ~ ! R R R R / W ~ W ( q z < x.x.x.x.x.  x.x.x.x.x.x.x.x.",
"x.x.x.x.x.x.x.x.  @Xx.x.x.u a r 9.a.r.r.r.r.r.r.r.r.r.r.r.r.r.r.r.r.r.r.r.r.r.r.r.r.r.r.r.r.z.a 6 < x.x.x.x.;   x.x.x.x.x.x.x.x.",
"x.x.x.x.x.x.x.x.  @Xx.x.x.k a r r.z.d.r.r.r.r.r.r.r.r.r.r.r.r.r.r.r.r.r.r.r.r.r.r.r.r.r.r.r.a.h 6 < x.x.x.x.;   x.x.x.x.x.x.x.x.",
"x.x.x.x.x.x.x.x.  x.x.x.x.l a r a.p.r.[ { U ..I ..I } Y [ { U ..I } Y [ { U ..I ..I P L r.r.a.6 a < x.x.x.x.;   x.x.x.x.x.x.x.x.",
"x.x.x.x.x.x.; ;   x.x.x.x.l a r a.a.r.B B B B B B B B B B B B B B B B B B B B B B B m m r.r.a.6 a < x.x.x.; ;   x.x.x.x.x.x.x.x.",
"; ; ; ; ; ; ; ;   x.x.x.x.l a r a.r.2.B B B B B B B B B B B B B B B B B B B B B B B B C r.r.a.6 a < ; ; ; ; ;   x.x.x.x.x.x.x.; ",
"  @X@X@X@X@X@X@X@Xx.x.x.x.l a r r.r.k.F G J F J F J F J H G J J J F J H G J J J J F J K r.a.a.6 a < @X@X@X@X@X@Xx.x.x.x.x.x.x.  ",
"  @X@Xx.x.x.x.x.x.x.x.x.x.l a r r.a.,.v.v.v.v.c.v.v.v.c.v.c.n.v.n.v.v.v.c.v.v.n.v.v.c.V.r.a.a.6 a < x.x.x.x.x.x.x.x.x.x.x.x.x.  ",
"  x.x.x.x.x.x.x.x.x.x.x.x.l a r r.r.r.m.m.m.m.m.m.m.m.m.m.m.m.m.m.m.m.m.m.m.m.m.m.m.n.m.r.a.a.6 a < x.x.x.x.x.x.x.x.x.x.x.x.x.  ",
"  x.x.x.x.x.x.x.x.x.x.x.x.l a r r.r.r.m.m.m.m.m.m.m.m.m.m.m.m.m.m.m.m.m.m.m.m.m.m.m.n.n.r.a.a.6 a < x.x.x.x.x.x.x.x.x.x.x.x.x.  ",
"  x.x.x.x.x.x.x.x.x.x.x.x.l a r r.r.r.m.m.m.m.m.m.m.m.m.m.m.m.m.m.m.m.m.m.m.m.m.m.m.b.m.r.r.a.6 a < x.x.x.x.x.x.x.x.x.x.x.x.x.  ",
"  x.x.x.x.x.x.x.x.x.x.x.x.l a r r.r.r.m.m.m.m.m.m.m.m.m.m.m.m.m.m.m.m.m.m.m.m.m.m.m.m.m.r.r.a.6 a < x.x.x.x.x.x.x.x.x.x.x.x.x.  ",
"  x.x.x.x.x.x.x.x.x.x.x.x.l a r r.r.r.m.m.m.m.m.m.m.m.m.m.m.m.m.m.m.m.m.m.m.m.m.m.m.M.m.r.r.a.6 a < x.x.x.x.x.x.x.x.x.x.x.x.;   ",
"  x.x.x.x.x.x.x.; ; ; ; ; l a r r.r.r.m.m.m.m.m.m.m.m.m.m.m.m.m.m.m.m.m.m.m.m.m.m.m.m.m.r.r.a.6 a < x.x.x.x.x.; ; ; ; ; ; ; ;   ",
"                          l a r r.r.r.m.V.N.c.V.c.V.V.n.M.V.N.c.V.V.n.M.V.N.c.V.c.V.B.m.r.r.a.6 a <                             ",
"x.x.x.x.x.x.x.x.  @X@Xx.x.l a r r.r.r.v.c.c.c.c.c.n.v.c.v.n.v.m.v.c.v.v.n.c.c.m.v.m.c.c.r.r.a.6 a < x.x.x.x.x.  @X@Xx.x.x.x.x.x.",
"x.x.x.x.x.x.x.x.  @Xx.x.x.l a r r.r.>.(.{.[.[.[.[.[.[.[.[.[.{.{.[.[.[.[.[.[.[.{.[.{.XX+Xr.r.a.6 a < x.x.x.x.x.  @Xx.x.x.x.x.x.x.",
"x.x.x.x.x.x.x.x.  @Xx.x.x.l a r r.g.#.(.'./.^./.^./.^.~.~.^./.^./.^.~.~.^./.^./.^./.T.).r.r.a.6 a < x.x.x.x.x.  x.x.x.x.x.x.x.x.",
"x.x.x.x.x.x.x.x.  @Xx.x.x.l a r r.i.1.OX+X.X'.'.'.'.}.'.}.|.+X+X'.'.'.`.`.'.'.oX'.oX{.+Xi.r.a.6 a < x.x.x.x.;   x.x.x.x.x.x.x.x.",
"x.x.x.x.x.x.x.x.  @Xx.x.x.l a r r.i.t.o.@.+.=.O.=.o.o.o.o.@.*.O.=.-.&.| $.o.O.:.O.:.1.%.g.r.a.6 a < x.x.x.x.;   x.x.x.x.x.x.x.x.",
"x.x.x.x.x.x.x.;   x.x.x.x.l a r r.i.t.r.g.g.g.g.g.g.g.g.g.g.g.g.g.g.g.g.g.g.g.g.g.g.g.r.r.4.a.6 a < x.x.x.x.;   x.x.x.x.x.x.x.x.",
"x.x.x.x.x.x.; ;   x.x.x.x.l a r r.i.g.i.i.i.i.i.i.i.i.i.i.i.i.i.i.i.i.i.i.i.i.i.i.i.r.r.1.r.a.6 a < x.x.x.; ;   x.x.x.x.x.x.x.x.",
"                          l a r w.g.r.r.r.r.r.r.r.r.r.r.r.r.r.r.r.r.r.r.r.r.r.r.r.r.;.] D.D.S.x j >                             ",
"  @X@X@X@X@X@X@X@X@Xx.x.x.l a r w.y.r.r.u.u.u.u.u.u.u.u.u.u.u.u.u.u.u.u.u.u.u.u.u.u.w. .D.D.F.5 a < @X@X@X@X@X@Xx.x.x.x.x.x.x.  ",
"  @Xx.x.x.x.x.x.x.x.x.x.x.l a r w.u.r.r.p.p.p.p.p.p.p.p.p.p.p.p.p.p.p.p.p.p.p.p.p.p.6.` D.D.G.0 t , x.x.x.x.x.x.x.x.x.x.x.x.x.  ",
"  x.x.x.x.x.x.x.x.x.x.x.x.l a r p.f.r.M D D D D D D D D D D D D D D D D D A D D D D Z B ) _ ' l r > x.x.x.x.x.x.x.x.x.x.x.x.x.  ",
"  x.x.x.x.x.x.x.x.x.x.x.x.l a r a.r.r.B B B B B B B B B B B B B B B B B B B B B B B B S r.g.0.z r > x.x.x.x.x.x.x.x.x.x.x.x.x.  ",
"  x.x.x.x.x.x.x.x.x.x.x.x.l a r a.r.r.B N m m B m B V m N N m m B V m N N m m B m B D m r.r.7.z r > x.x.x.x.x.x.x.x.x.x.x.x.x.  ",
"  x.x.x.x.x.x.x.x.x.x.x.x.l a r a.j.:.c.c.c.c.c.c.c.c.c.c.c.c.c.c.c.c.c.c.c.c.c.c.c.c.v.i.r.e.z r > x.x.x.x.x.x.x.x.x.x.x.x.x.  ",
"  x.x.x.x.x.x.x.x.x.x.x.x.l a r r.r.r.m.m.m.m.m.m.m.m.m.m.m.m.m.m.m.m.m.m.m.m.m.m.m.m.m.r.r.a.6 a < x.x.x.x.x.x.x.x.x.x.x.; ;   ",
"  x.x.x.x.x.x.x.; ; ; ; ; l a r r.r.r.m.m.m.m.m.m.m.m.m.m.m.m.m.m.m.m.m.m.m.m.m.m.m.m.m.r.r.j.6 a < x.x.x.x.x.; ; ; ; ; ; ; ;   ",
"@Xx.x.x.x.x.x.x.  @X@X@X@Xl a r r.r.r.m.m.m.m.m.m.m.m.m.m.m.m.m.m.m.m.m.m.m.m.m.m.m.m.m.r.r.a.6 a < x.x.x.x.x.  @X@X@X@X@X@X@X@X",
"x.x.x.x.x.x.x.x.  @X@Xx.x.l a r r.r.r.m.m.m.m.m.m.m.m.m.m.m.m.m.m.m.m.m.m.m.m.m.m.m.m.n.r.r.a.6 a < x.x.x.x.x.  @X@Xx.x.x.x.x.x.",
"x.x.x.x.x.x.x.x.  @Xx.x.x.l a r r.r.r.m.m.m.m.m.m.m.m.m.m.m.m.m.m.m.m.m.m.m.m.m.m.m.m.m.r.r.h.6 a < x.x.x.x.x.  x.x.x.x.x.x.x.x.",
"x.x.x.x.x.x.x.x.  @Xx.x.x.l a r r.r.r.m.m.m.m.m.m.m.m.m.m.m.m.m.m.m.m.m.m.m.m.m.m.m.m.m.r.r.s.6 a < x.x.x.x.;   x.x.x.x.x.x.x.x.",
"x.x.x.x.x.x.x.x.  @Xx.x.x.l a r r.r.r.m.m.m.m.m.m.m.m.m.m.m.m.m.m.m.m.m.m.m.m.m.m.m.m.v.r.r.a.6 a < x.x.x.x.;   x.x.x.x.x.x.x.x.",
"x.x.x.x.x.x.x.x.  @Xx.x.x.l a r r.r.r.m.m.m.m.m.m.m.m.m.m.m.m.m.m.m.m.m.m.m.m.m.m.m.m.m.r.r.a.6 a < x.x.x.x.;   x.x.x.x.x.x.x.x.",
"x.x.x.x.x.x.x.;   x.x.x.x.l a r r.z.X.Z.A.A.A.A.A.A.A.A.A.A.A.A.A.A.A.A.A.A.A.A.A.A.V.C.r.r.j.6 a < x.x.x.x.;   x.x.x.x.x.x.x.x.",
"; ; ; ; ; ; ; ;   x.x.x.x.l a r r.h.1.(.[.[.[.[.[.[.[.[.[.[.[.[.[.[.[.[.[.[.[.[.[.[.].W.3.r.a.6 a < ; ; ; ; ;   x.x.x.x.x.x.x.; ",
"                          l a r r.j.<._.'.(.(.(.(.(.(.(.(.(.(.(.(.(.(.(.(.(.(.(.(.(.R. X5.r.a.6 a <                             ",
"  @X@Xx.x.x.x.x.x.x.x.x.x.l a r r.j.:.W.E.!.W.H.W.T.Q.L.U.!.!.W.!.K.Y.!.P.J.!.!.W.!.I._.r.r.h.z w < @Xx.x.x.x.x.x.x.x.x.x.x.x.  ",
"  x.x.x.x.x.x.x.x.x.x.x.x.l a r w.r.r.r.r.r.r.r.r.r.r.r.r.r.r.r.r.r.r.r.r.r.r.r.r.r.p.r.r.r.s.r 6 > x.x.x.x.x.x.x.x.x.x.x.x.x.  ",
"  x.x.x.x.x.x.x.x.x.x.x.x.l a r w.i.i.p.p.p.p.p.p.p.p.p.p.p.p.p.p.p.p.p.p.p.p.p.p.p.p.r.r.r.8.j w < x.x.x.x.x.x.x.x.x.x.x.x.x.  ",
"  x.x.x.x.x.x.x.x.x.x.x.x.l a r w.q.l.w.w.w.w.w.w.w.w.w.w.w.w.w.w.w.w.w.w.w.w.w.w.w.w.w.w.w.e.z w < x.x.x.x.x.x.x.x.x.x.x.x.x.  ",
"  x.x.x.x.x.x.x.x.x.x.x.x.a a w a a a d f a a a a 2 4 a a a s a a a a 3 4 a a a a a a a p y g r a 1 x.x.x.x.x.x.x.x.x.x.x.x.x.  ",
"  x.x.x.x.x.x.x.x.x.x.x.x.6 z 6 6 6 6 9 9 7 z 6 6 6 6 6 6 8 7 z z 6 6 6 6 6 6 6 6 z 7 9 l 6 6 6 6 > x.x.x.x.x.x.x.x.x.x.x.; ;   ",
"  x.x.x.x.x.x.x.; ; ; ; ; : : : : : : : : : : : : : : : : : : : = : : : : : : : : : : : : : : : : : x.x.x.x.x.; ; ; ; ; ; ; ;   ",
"@Xx.x.x.x.x.x.x.  @X@X@X@X@X@X@X@Xx.x.x.x.x.x.x.  @X@X@X@X@X@X@X@Xx.x.x.x.x.x.x.@X@X@X@X@X@X@X@X@Xx.x.x.x.x.x.  @X@X@X@X@X@X@X@X",
"x.x.x.x.x.x.x.x.  @X@Xx.x.x.x.x.x.x.x.x.x.x.x.x.  @X@Xx.x.x.x.x.x.x.x.x.x.x.x.x.@X@Xx.x.x.x.x.x.x.x.x.x.x.x.x.  @X@Xx.x.x.x.x.x.",
"x.x.x.x.x.x.x.x.  @Xx.x.x.x.x.x.x.x.x.x.x.x.x.x.  @Xx.x.x.x.x.x.x.x.x.x.x.x.x.; @Xx.x.x.x.x.x.x.x.x.x.x.x.x.;   x.x.x.x.x.x.x.x.",
"x.x.x.x.x.x.x.x.  @Xx.x.x.x.x.x.x.x.x.x.x.x.x.x.  @Xx.x.x.x.x.x.x.x.x.x.x.x.x.; @Xx.x.x.x.x.x.x.x.x.x.x.x.x.;   x.x.x.x.x.x.x.x.",
"x.x.x.x.x.x.x.;   @Xx.x.x.x.x.x.x.x.x.x.x.x.x.;   @Xx.x.x.x.x.x.x.x.x.x.x.x.; ; @Xx.x.x.x.x.x.x.x.x.x.x.x.x.;   x.x.x.x.x.x.x.x.",
"; ; ; ; ; ; ; ;   x.x.x.x.x.x.x.; ; ; ; ; ; ; ;   x.x.x.x.x.x.x.x.; ; ; ; ; ; ; x.x.x.x.x.x.x.x.; ; ; ; ; ; ;   x.x.x.x.x.x.x.; "
};
