/* XPM */
static char *result[] = {
/* columns rows colors chars-per-pixel */
"64 64 6 1 ",
"  c #1C6B12",
". c #1F7814",
"X c #26AF15",
"o c #29BD17",
"O c #2CCB19",
"+ c #2FD91B",
/* pixels */
"XXXXXXX   XXX XX XXXXXXXXXXXX O XX Xo  XoO XX XO XXXXXXXXXXXXXXX",
"XXXXXXXXXXXXXX XXXXXXXXXXXXXX XO X XX X   XXXX XO XXXXXXXXXXXXXX",
"XXX XXX XXXXX O XXXXXXXXXXXX X XO XX   XX XXXX XXXXXXX XXXXXXXXX",
"XX O X   XXXX + X   X XXXXX O.XXX X XXXX O.XX  XXXXXXX  XXXXXXXX",
"XX +  O O XX Xo  XoO  O XXX + X + XX XXX + X + XXXXXXX O XXXX XX",
"X Xo Xo XO X XX X   X XO XXXo  XO XXO XXXo  XO XXXXXXX XO XXX  X",
"X X XX X XO XX X XXXXX XO  X  XX XX XO  X  XX XXXX XXXX  O XX O ",
" XX X XXXXXXXXXX  XXXXXXX XX XXXXXXXXX XX XXXXXXXX  XXXX + X   O",
"O XX XXXXXXXXXXX O XX XoXX XXXXX O XXXXXXXXXXXXXXX O XX Xo  XoO ",
"XXXXXXXXXXXXXXXX XO X XX X  XXXX + X   XXXXXXX XXX  X X XX X   X",
"XXXXXXXX XXXXXX X X  XX  X O XX Xo  XoO XXXXX O.XXX XO XX   XXXX",
"XXXXXXXX  XXXX O.XX O XXXX XO X XX X    O XXX + X + XXXXXXXXXXXX",
"XXX   XX O XXX + XXXXO XXXX XO XX   XXX XO XXXo  XO XXXXXXXXXXXX",
"XX XXX   XO X Xo XXX  O XX XXXXXXXXXXXXX XO  X  XX XXXXX XXXX XX",
"XXX   Xoo XO  X O X X + X O XXXXXXXXXXXXXXX XX XX XXXXX O.XXX XX",
"XXXXXX   X X XX +    Xo X + X   XXXXXXXXXXXXXXXXX O XXX + X + XX",
"XXXXXXXXXX  XX Xo X O X  Xo  XoO XXXXX XXXX XXXX  XO XXXo  XO XX",
"XXX XXXXXX O X X XX XO X XX X    XXXX O.XX  XXXX + XO  X  XX XXX",
"XX X XXXX  XO XX X X XO XX   XXXX XXX + X +  XX XoXXX XX XXXXXXX",
"XX X XXX  X XO XX XXXXXXXXXXXXXXXO XXXo  XO O X X XX XXXXXXXXXXX",
"XX XX X + XXXXXXXXXXXXXXXX XXXX  XO  X  XX XXO XX X XXXXXXXXXXXX",
"XXX o  XO XXXXXXXXXXXXXXX X XXX +XX XX XXXXX XO XX XXXXX XXXXXXX",
"XXX o+ X XXXXXXXXXXXXX XX X XX Xo XXXXXXXXXXXXXXX XXXXX O XXXXXX",
"XXXXXXXX XXXXXXX XXXX O X XX X X XXXXXXXXXXXXXXXX  XXXX + X   XX",
"XXXXXXX O X   XX  XXX + XX o  XX XXX   XXX XXX    O XX Xo  XoO X",
"XX XXXX +  O X   O X Xo XX o+ XXXXX XXX   O   XoO XO X XX X   XX",
"XX  XX Xo Xo  Xo XO  X XXXXXX XXXX X   Xo +  O   X XO XX   XXXXX",
"XX O X X XX XX    X XX  XXXX O.XX  X  X  Xo Xo XXXXXXXXXXXXXXXXX",
"XX XO XX X XXX O XXXXXXX XXX + X + X O X X XX XXXXXXXXXXXXXXXXXX",
"XXX XO X  XXXX + X   XXXO XXXo  XO X XO XX X XXXXXXXXX XXXXXX XX",
"XXXX XXX O XX Xo  XoO X XO  X  XX XXX XO XX XXXXXXXXXX  XXXX O X",
"XXX O XX XO X XX X   XXXXX XX XXXXXXXXXXXXXXXXXXXXXXXX O XXX + X",
"XXX + X   XO XX   XXXXX O XXX O X XXXXXXXX XXXXXXXX XX XO X    X",
"XX Xo  XoO XXX X XXXXXX   XXX +  O  XXXXX O XXXXXX X  X.XO   O X",
" X XX X   XXXX XX XXXX X  XX Xo Xo   XXXX + XXXX XX XXXoXX X XOX",
"O XX   O XXXXXX o XXXX X O X X XX X O XX  o XXX O XX     X XX XO",
"XXXXXXXXXXXXXXX o+ XX XX XO XX X XX X  X   XXXX + X   XXXXXXXXXX",
"XXXXXXXXX XXXXXX XXXXXXXX XO XX XXXX O    O XX Xo  XoO XXXXXXXXX",
"XXXXXXXXX  XXXX O.XXXXXX XXXXXX XXXX +  O XO X XX X   XXXXXXXXXX",
"XXXX   XX O XXX + XXXXX O XXXXX  XX Xo Xo  XO XX   X  XX XXXXXXX",
"XXX XXX   XO X Xo  XXXX o XXXXX O X X XX XXXXXXXX   + X O.XXXXXX",
"XXXX   Xoo XO  X X  XXX X XXXXX XO XX X XXXX   XX O O X + XXXXXX",
"XXXXXXX   XXX XX X O X XX      X XO  O XXXX XXX   XO X Xo XXXXXX",
"XX XXXXX O XXXX XX XO  X XXXo.  XXXX + X   X   Xoo XO  X XXXXXXX",
"XX  XXXX + XXXX  XX X O.     X O XXXXo  XoO XXX   O X XX XXXXXXX",
"XX O XX X    XX O XXX + XXXXXX XOXXXXX X  XXXXXXX +  O XXXXXXXXX",
"XX XO X  O X    XO X Xo XXXX XX XXXXX X XXXXX XX Xo Xo  XXXX XXX",
"XXX XO X +  O oo XO    XXXX O XXXXXXXXXXXXO XO X X XX  O.XXX XXX",
"XXX  XX Xo Xo   X X X  XXXX + X   X  XXXXXXOXXO  O X X + X + XXX",
"XXX O X X  X XXX O XX O XX Xo  XoO + XXXXX XX XO XO XXXo  XO XXX",
"XXX XO XX   XXXX + X   O X XX X      X O XXX + XX XO  X  XX XXXX",
"XXXX XO XX O XX Xo  XoO O XX   X XXX   XO X Xo XXXXX XX XXXXXXXX",
"XXXXXXXX X XO X XX X   XXXXXXXXXX   Xoo XO  X XXXXXXXXXXXXXXXXXX",
"X XXXXX O X XO XX   XXXX XXXXXXXXXXX   XXX XX  XXXXXX XXXX XXXXX",
"X  XXXX + X   XXXXXXXXXX  XXXXX    XXXXXX XXXX  XXXX O.XX  XXXXX",
"X O XX Xo  XoO XXX XX XX O X   XoO  XXXX O. XX O XXX + X + XXXXX",
"X XO X XX X   XXX  XX  X XO X      O XXX + X   XO X Xo  XO XXX X",
"XX XO XX   XX XX + XX O X XO XXX   XO X Xo  Xoo XO  X  X XXXX X ",
" XXXXXXXXXX o X XO XX XO XXX    Xoo XO  X XX   XX  XX X O.XXX XO",
"O XXXXXXX X o+ X  XXXX  O XX O X   XXX XX XXXXXXX O XXX + X +  X",
"XO XXXXXX  XXXX O  XXXX + XX  OXXXXXXXXXXXXXXXXXX XO XXXo  XO X ",
"XXXX   XX O XXX + O XX Xo  XoO XXXXX XXXXXXXX XXXX XO  X  XX XXX",
"XXX XXX   XO X Xo XO X XX X   XXXXX O X XXXXX  XXXXXX XX XXXXXXX",
"XXXX   Xoo XO  X X XO XX   XXXXXXXX +  O XXXX O XXXXXXXXXXXXXXXX"
};
