/* XPM */
static char *result[] = {
/* columns rows colors chars-per-pixel */
"64 64 62 1 ",
"  c #0C0C0C",
". c gray5",
"X c #0E0E0E",
"o c gray6",
"O c #101010",
"+ c #111111",
"@ c gray7",
"# c #131313",
"$ c gray8",
"% c #151515",
"& c #161616",
"* c gray9",
"= c #181818",
"- c #191919",
"; c gray10",
": c #1B1B1B",
"> c gray11",
", c #1D1D1D",
"< c #1E1E1E",
"1 c gray12",
"2 c #202020",
"3 c gray13",
"4 c #222222",
"5 c #232323",
"6 c gray14",
"7 c #252525",
"8 c gray15",
"9 c #272727",
"0 c #282828",
"q c gray16",
"w c #2A2A2A",
"e c gray17",
"r c #2C2C2C",
"t c #2D2D2D",
"y c gray18",
"u c #2F2F2F",
"i c gray19",
"p c #313131",
"a c #323232",
"s c gray20",
"d c #343434",
"f c #353535",
"g c gray21",
"h c #373737",
"j c gray22",
"k c #393939",
"l c #3A3A3A",
"z c gray23",
"x c #3C3C3C",
"c c gray24",
"v c #3E3E3E",
"b c #3F3F3F",
"n c gray25",
"m c #414141",
"M c gray26",
"N c #434343",
"B c #444444",
"V c gray27",
"C c #464646",
"Z c gray28",
"A c #484848",
"S c #494949",
/* pixels */
"++#@@O%$$@&*&%&%*%#%#&&&$=&%$=*-%*&*%#%%&&&$=%$$*==&&$%@#$+@+#+#",
"@O@@+@%%%#&-=&=*=*%&$*=%&**&$=;-&-=;=%*%&=&&=*$%==-$*=*%@$+###@#",
"#+@$##&%*&*:;=;=-*&=&*;**>=;*;>>-:=:=*-*&-&*>=;=-;-=-==%#%$+$+@&",
"$@%@$$&*=*-=;=>-:&*;-;*-;:::;;;>-:->*&;=-;:-:::;;;>--=;%$$$#%&$%",
"%$%#%$-=-=;;:;>>,-=>;:;;*,>,>:>,:,,<-*>-;;,=<:,;>:,-;;>%$$%%%=#=",
"&#&&=%-:;:<,1>,,1:=<=,:1;1,<<221,1<3;=,-:-<;4<<,11<;>>,=&=$&&*$=",
"&&&%;*,::;112<<23;,,>,>2:53<>434<233<>>,<;2:521;331>1<<:=*=-#*$;",
"$&**>=<:,,<52:2252:><1<4<5353255<3251>,1314>533<364,113:-=*-=-&;",
"*=-->=<1,1433<156<,<1417<964484823653<12416<86538272,34,-:-;;;*>",
"==-*,-,1<154635472,2341615866q7857772,32434,58659663535:-:;;-:*>",
"-->;>;33146683879<>446491q878w006998<,657495q878q885667>:>;>,,:<",
"=;::<:431508948qw754496e5e96qrew70rt75458697w950r99560q,:,<>;,:2",
"::>>4<5546eqe898y729889t7rw9wuey0w0p04598qy8w09wrqe808q2>21,,2>2",
"::<:5<6548t0r9yui6690q9i0teeeitiqadp757qe9y7ywwruey7etw1,22,23>2",
">><141645qrew9iupr7eetyu0iteiapiefpdu6wettieyretiytqyrt6<222<2,3",
":,5551787esreeiis0uwrpssqpueagsiypsdqurtpsuwyitpsitwety4041432<2",
">125638798iartifdtfraffdediapjhpupgjufrysdiwapusfpurryy7034552,3",
":243828w0wuatypphrjtafdfiffaakkdafdzrkradddpdsuigfiryta6r53543,2",
":144429eqtaspyissulrhdfdijldhxkhsfhfiltdfhfihjpdjfspipr9r44565,3",
"<,36729qqpfapydhdahdyhjkpjpdllxhsglgskfihhkdhushjjsyppu0w67653<4",
"<<5672q0qigjaifjhsjsujkhpzsgccxkgzxkahsyhhadjsfkxkdpdup0r88662<3",
">13674qwwufhdikklpvpgkllulfjlmbljczxgzdskklulffdcldpdtywt88754,4",
"<24995wreafjfdljkszahjxbdzlfnMvxlcjhhcsjlkldxghlvkhfayeer76836<4",
",<5767qqrdfzgggzssxshzchdbMzmBNvxbcpkbazxkzdxNjmmvjfkpter8386413",
"<<429qyquisdhjcczgkhjcavhvNMBvcvcBvvlxfhzfcfcnvvzljglpire88634,4",
",<4770wystapghxvvkchfzxxlccZkclnxNcMkxfkxlvlzxMkhklsjufrt77776<4",
",>5577euddidgjlbzjcjkvkxkVbBNxvbccmzzxllvvnkVcbmkllgsauty77788<4",
">>64w7iysuysgjbvvclksvnBhZNNxkjbbVMMvckflcBsVVbxhazhlsdyt67779,5",
":<66r8urairgjkxckchkjvxNjBSnxzmbnmvvbjjjlcnkCVmxlxjhhiiut6447426",
":118r6rtppypjlklxlldxgzBlNZBbkjnbMcmzxsllcBvMBNxjflhjfstt9785732",
":<36r6eydyyshcnlljzfjxnBclMZllxbmNbblldfjbNxlVZlhhjgafirw7968721",
";117r5wypayuhlzzvjkslfxBkmAMbljbbmxblzszlzNvmVMxkhkghsare9645843",
":165e8tearrhhkkxkzhgjxzmkNZMhcmvvvczxhjkkxMkBBnhkchffiiye6557535",
"::64q8ttsiyafhbxczjhacxMgCMmckzvcNbncxkslcBaVBczfdkgjidye65678>4",
"::4378eyahidfjkvzhzgfxkzjBvmClcvccbxzvjkzxbkNxxNgkkdfpiyr76686,4",
">>3569wtarppfhkxzhkffzlzhczVjxjvxmxmflsjkhxhzjbhgfjakiser67456,2",
">>3178tquiiiffjkjghdgjsxfznnMxzclczljksdjsjpzvzkjjgdduyew67422>2",
";:2556q8eadhfafkipjidjzdazxkvmvzkzztjzphkhkskzfcvjfsfytwe73452,<",
";,13940qqudfapdgdskpdgkvalffznxlhjjsgkidhffildsjlgdaie00w55622><",
"-><395q0wrsgptfggulysghzthafhcxjskhkgkpihffrjpadljpuprrqw6634<;<",
"=-<321980tdfiypgsagiysfitgadkzkfshghpduesdpifpishdpypet0w75331:>",
"==>24<808uiuyeuaiysywisdyfrphhhdpsgsusiesafyaeiddaieryq703431,;>",
"%;>12<689euirrtuuefqsiauysdusjgaupsarf0iuaaeastydpyewyw6q2221<*;",
"&-,,4>6970rieeuyaes9ypupepuyysfiypifqs0tyuyeiyeepirqrwt5021<,>=-",
"%-><2,5573ry00eiiqu0eiii0iyyqssyrtpsri0ruue9ttwritw98qe572<2<:*=",
"$*:,2>445qt0q7wry7e8qtyy7rrqypur0tui6e90tuw8we9etrq7wew17<><,;==",
"$%-;,>31288085wqr037709w5wq8erte8yrtw38808e7q980ww05w0q1:>>>;;&*",
"$$*%<:21158694qww215566e6q099e9e7rut114585q50659q8048q7,;:::;;%*",
"##&*,:11,195834193,434402985808q563q3<24469286478681518>->:==-$*",
"+#%&;-<,>2344<4671<11537<842697836803112323374147552<46---;=&&#&",
"@#%%-=<2><214:444::112<5>7624665<565,;111,424422633,142---**&&$$",
"O+##=*:>;>1<1,<13:=>,,>1:22216241331;-,><>,-22<1422<<,1-&***%%+$",
"O+#%*$-;-:1,<-:<1;--:,>2;411<323>,12<;:>,><-3,,>2>2:;><-&=&&%$+#",
"X+@#*$;=;-:<>=:><,=*;::,-<,,>,31:>>,,==;>;,-<,,;,1,;;->=%%#&##+@",
"oO@@%$-**&;:>-;:,*=---=:=<::=<,<;>,<-=--;&:=,;;&>>>-;;:&&%$%+@O@",
"oo++$#***%:-:*--:*%-*-*;*;;:=,>:-:;,%&-&*%-*:-;&::-*==-#$%@@+@o+",
"XO+O@@%$&&&**&-=-&$*==**%:*-==-;*--;&%&%&&-#:==**=-&**=#@@#@@@o@",
"oXOO@@#$%$&%&%=&=##*%&%%&==****-&-&-$$&$%*&%**&&&&=&*%*#@@++@@oO",
"X.oOOO###@$**%*$&##%@$&$$=%&%&*=&*%*$#%#@&#$=$&#%&%%$$%@+@+XOXXO",
". Xooo@@#O#&%#$$$#@@@$$##&#$#%*&#&%%%@#@#$#@$$+#%$$@#$%#O+oOOoXX",
". oooo+@+O#$#@#@$#O@+###@%@#+$$%@#@$@O@@@@#+$+++##%+$+@OO+ooXo.X",
"...oo.O++o@##O@+#@o+O@@@@$++O##%+#@#@O+O+@@+#+OO#@%O#O+OoOXooo X",
"  ..XXoOOX@#+O++++oOO+@OO@++o@$#+@@@+o+oO++O+OOO@@@O+++OXoXXXo .",
"   .X.OoOXO@@O@O+OXOooOoo@+OO+@++@O+ooOoXOoo@o+oO@+O@O+X.oX....."
};
