/* XPM */
static char *result[] = {
/* columns rows colors chars-per-pixel */
"64 64 55 1 ",
"  c black",
". c #030206",
"X c #010A01",
"o c #06050E",
"O c #031802",
"+ c #0B0917",
"@ c #111012",
"# c #1B1B1D",
"$ c #062303",
"% c #110D21",
"& c #161325",
"* c #1A182A",
"= c #201C2E",
"- c #272438",
"; c #29273C",
": c #29273D",
"> c #2A283D",
", c #0C4306",
"< c #0F5F05",
"1 c #0D6B03",
"2 c #15670A",
"3 c #127A04",
"4 c #157108",
"5 c #1F7D11",
"6 c #496F3E",
"7 c #56314B",
"8 c #434649",
"9 c #4F5051",
"0 c #575450",
"q c #5C5E61",
"w c #714864",
"e c #696A6B",
"r c #1CAE06",
"t c #1FA70B",
"y c #1BB105",
"u c #1FBF07",
"i c #1FB908",
"p c #20AE0B",
"a c #23CD0A",
"s c #27DB0C",
"d c #7B7D83",
"f c #989AA0",
"g c #AAAAAB",
"h c #C1C3C9",
"j c #D1CFD0",
"k c #D9DADE",
"l c #D4DCEB",
"z c #D0E0FD",
"x c #DEE7F8",
"c c #DFE8F8",
"v c gray91",
"b c #E3EBFA",
"n c #E7EEFC",
"m c #F3F6FB",
"M c white",
/* pixels */
"yyyyyyy111yyy1yy1yyyyyyyyyyyy1a1yy1yu11yua1yy1ya1yyyyyyyyyyyyyyy",
"yyyyyyyyyyyyyy1yyyyyyyyyyyyyy1ya1y1yy1y111yyyy1ya1yyyyyyyyyyyyyy",
"yyy1yyy1yyyyy1a1yyyyyyyyyyyy1y1ya1yy111yy1yyyy1yyyyyyy1yyyyyyyyy",
"yy1a1y111yyyy1s1y111y1yyyyy1a3yyy1y1yyyy1a3yy11yyyyyyy11yyyyyyyy",
"yy1s11a1a1yy1yu11yua11a1yyy1s1y1s1yy1yyy1s1y1s1yyyyyyy1a1yyyy1yy",
"y1yu1yu1ya1y1yy1y111y1ya1yyyu11ya1yya1yyyu11ya1yyyyyyy1ya1yyy11y",
"y1y1yy1y1ya1yy1y1yyyyy1ya11y11yy1yy1ya11y11yy1yyyy1yyyy11a1yy1a1",
"1yy1y1yyyyyyyyyy11yyyyyyy1yy1yyyyyyyyy1yy1yyyyyyyy11yyyy1s1y111a",
"a1yy1yyyyyyyyyyy1a1yy1yuyy1yyyyy1a1yyyyyyyyyyyyyyy1a1yy1yu11yua1",
"yyyyyyyyyyyyyyyy1ya1y1yy1y11yyyy1s1y111yyyyyyy1yyy11y1y1yy1y111y",
"yyyyyyyy1yyyyyy1y1y11yy11y1a1yy1yu11yua1yyyyy1a3yyy1ya1yy111yyyy",
"yyyyyyyy11yyyy1a3yy1a1yyyy1ya1y1yy1y1111a1yyy1s1y1s1yyyyyyyyyyyy",
"yyy111yy1a1yyy1s1yyyya1y   1ya1yy111yyy1ya1yyyu11ya1yyyyyyyyyyyy",
"yy1yyy111ya1y1yu1yyy11 Mxc yyyyyyy zMdOy1ya11y11yy1yyyyy1yyyy1yy",
"yyy111yuu1ya11y1a1y1yeMcM a1yyyyyyyy xMMyyy1yy1yy1yyyyy1a3yyy1yy",
"yyyyyy111y1y1yy1s111jmcMy1s1y111yyyy.dcMMyyyyyyyy1a1yyy1s1y1s1yy",
"yyyyyyyyyy11yy1yu1y$mbl<1yu11yua1yyyyr9cM y1yyyy11ya1yyyu11ya1yy",
"yyy1yyyyyy1a1y1y1yy mcfy1yy1y1111yyyy1icxM11yyyy1s1ya11y11yy1yyy",
"yy1y1yyyy11ya1yy1y1 bc 1yy111yyyy1yyy1s xMs11yy1yuyyy1yy1yyyyyyy",
"yy1y1yyy11y1ya1yy1y bc yyyyyyyyyya1yyyu cMa1a1y1y1yy1yyyyyyyyyyy",
"yy1yy1y1s1yyyyyyyyy bc yyy1yyyy11ya11y1 cM1yya1yy1y1yyyyyyyyyyyy",
"yyy1u11ya1yyyyyyyyyyhclyy1y1yyy1syy1yy<ccMyy1ya1yy1yyyyy1yyyyyyy",
"yyy1us1y1yyyyyyyyyyy$mc y1y1yy1yu1yyyy#cx yyyyyyy1yyyyy1a1yyyyyy",
"yyyyyyyy1yyyyyyy1yyyrdccO1yy1y1y1yyyyOvcMyyyyyyyy11yyyy1s1y111yy",
"yyyyyyy1a1y111yy11yyy8Mcnggggggggggggmcm y1yyy1111a1yy1yu11yua1y",
"yy1yyyy1s11a1y111a1y1y,cccmMMMMMMMmmbcbg11a111yua1ya1y1yy1y111yy",
"yy11yy1yu1yu11yu1ya11y1bccccccccccccccb u1s11a111y1ya1yy111yyyyy",
"yy1a1y1y1yy1yy1111y1yy1Mccccccccccccccb 1yu1yu1yyyyyyyyyyyyyyyyy",
"yy1ya1yy1y1yyy1a1yyyyyyMccccccccccccccM 1y1yy1yyyyyyyyyyyyyyyyyy",
"yyy1ya1y11yyyy1s1y111yyMccccccccccccccM yy1y1yyyyyyyyy1yyyyyy1yy",
"yyyy1yyy1a1yy1yu11yua1yMccccccccccccccM 1yy1yyyyyyyyyy11yyyy1a1y",
"yyy1a1yy1ya1y1yy1y111yyxc.  hccccj   kc yyyyyyyyyyyyyy1a1yyy1s1y",
"yyy1s1y111ya1yy111yyyyycb    cccc    dc yy1yyyyyyyy1yy1ya1y1111y",
"yy1yu11yua1yyy1y1yyyyyycb   0ccccq   dc y1a1yyyyyy1y11y3ya111a1y",
"1y1yy1y111yyyy1yy1yyyy1 c@  lccccc  olhyy1s1yyyy1yy1yyyuyy1y1yay",
"a1yy111a1yyyyyy1u1yyyy1yccccccccccccccXy11u1yyy1a1yy11111y1yy1ya",
"yyyyyyyyyyyyyyy1us1yy1yy bccccccccccb 1y111yyyy1s1y111yyyyyyyyyy",
"yyyyyyyyy1yyyyyy1yyyyyyy w          1a1111a1yy1yu11yua1yyyyyyyyy",
"yyyyyyyyy11yyyy1a3yyyyyy1 w  oo% ; y1s11a1ya1y1yy1y111yyyyyyyyyy",
"yyyy111yy1a1yyy1s1yyyyy1a17% .% * *1yu1yu11ya1yy111y11yy1yyyyyyy",
"yyy1yyy111ya1y1yu11yyyy1u .& +.+%;.Oy1yy1yyyyyyyy111s1y1a3yyyyyy",
"yyyy111yuu1ya11y1y11yyy1y1+o.%.=+o;ot1y1yyyy111yy1a1a1y1s1yyyyyy",
"yyyyyyy111yyy1yy1y1a1y1yy<-%%o*+=;;; a1yyyy1yyy111ya1y1yu1yyyyyy",
"yy1yyyyy1a1yyyy1yy1ya11y1  %& ;-**;*;51y111y111yuu1ya11y1yyyyyyy",
"yy11yyyy1s1yyyy11yy1y1a31:*;&o.*;*>; 411yua1yyy111a1y1yy1yyyyyyy",
"yy1a1yy1y1111yy1a1yyy1s1y ;; %o**; ;; 1y11yyyyyyy1s11a1yyyyyyyyy",
"yy1ya1y11a1y1111ya1y1yu1 ;; -*o *;; ;+X1yyyyy1yy1yu1yu11yyyy1yyy",
"yyy1ya1y1s11a1uu1ya1111y ; >;    *;;>+Xyyya1ya1y1y1yy11a3yyy1yyy",
"yyy11yy1yu1yu111y1y1y11y ;*;       ;;= yyyyayya11a1y1y1s1y1s1yyy",
"yyy1a1y1y11y1yyy1a1yy1a1oo>>       o-%5 yy1yy1ya1ya1yyyu11ya1yyy",
"yyy1ya1yy111yyyy1s1y111a>=%&  #1     o1a1yyy1s1yy1ya11y11yy1yyyy",
"yyyy1ya1yy1a1yy1yu11yua1 1yy  eee  y2 1ya1y1yu1yyyyy1yy1yyyyyyyy",
"yyyyyyyy1y1ya1y1yy1y111yyyyy  eee  1yuu1ya11y1yyyyyyyyyyyyyyyyyy",
"y1yyyyy1a1y1ya1yy111yyyy1yyyX eee yy111yyy1yy11yyyyyy1yyyy1yyyyy",
"y11yyyy1s1y111yyyyyyyyyy000000000000006yy1yyyy11yyyy1a3yy11yyyyy",
"y1a1yy1yu11yua1yyy1yy1yy1a1000000001pyyy1a31yy1a1yyy1s1y1s1yyyyy",
"y1ya1y1yy1y111yyy11yy11y1ya1y111111a1yyy1s1y111ya1y1yu11ya1yyy1y",
"yy1ya1yy111yy1yy1s1yy1a1y1ya1yyy111ya1y1yu11yuu1ya11y11y1yyyy1y1",
"1yyyyyyyyyy1u1y1ya1yy1ya1yyy1111yuu1ya11y1yy111yy11yy1y1a3yyy1ya",
"a1yyyyyyy1y1us1y11yyyy11a1yy1a1y111yyy1yy1yyyyyyy1a1yyy1s1y1s11y",
"ya1yyyyyy11yyyy1a11yyyy1s1yy11ayyyyyyyyyyyyyyyyyy1ya1yyyu11ya1y1",
"yyyy111yy1a1yyy1s1a1yy1yu11yua1yyyyy1yyyyyyyy1yyyy1ya11y11yy1yyy",
"yyy1yyy111ya1y1yu1ya1y1yy1y111yyyyy1a1y1yyyyy11yyyyyy1yy1yyyyyyy",
"yyyy111yuu1ya11y1y1ya1yy111yyyyyyyy1s11a1yyyy1a1yyyyyyyyyyyyyyyy"
};
