/* XPM */
static char *result[] = {
/* columns rows colors chars-per-pixel */
"64 64 40 1 ",
"  c black",
". c #07060E",
"X c gray7",
"o c gray8",
"O c #181818",
"+ c gray10",
"@ c #1B1B1B",
"# c gray11",
"$ c gray12",
"% c #100D21",
"& c #1B192B",
"* c gray13",
"= c gray14",
"- c #272727",
"; c #282828",
": c gray16",
"> c gray17",
", c #2C2C2C",
"< c #2D2D2D",
"1 c gray18",
"2 c #262337",
"3 c #29273C",
"4 c gray19",
"5 c #323232",
"6 c #343434",
"7 c gray21",
"8 c #373737",
"9 c gray22",
"0 c gray23",
"q c #3E3E3E",
"w c gray26",
"e c #4A4448",
"r c #585352",
"t c #6C6D6F",
"y c #96979C",
"u c #B4B6BD",
"i c #D0D3DA",
"p c #E0E9F8",
"a c #F1F5FC",
"s c white",
/* pixels */
"oOOO+OOXoXXOoXXOooOOXoX@OOOOoOXO@@O+OooO+OOO+OOOoXXOXXoooXOOOXoX",
"OO+O+oOXoXoooOoOooOOooX$#O+OOOOX$O@+@XoO#@OO##oOOooooOOOoOOOOoXo",
"+#O@@oo+oXOOoOOo+OO+XOX$++@++@+XO#$+$oOO+#+O#$OOoOXOOooOoOOOOooO",
"@O++@OOooXOOOO@O#o#$oOo$$#$@+$#o$$@#$OO+*#$+$$O$OOoOOoO+#O+@#OOO",
"+O#$#OO$Oo+OOO+@@@$$OO@$$#$@#*$o$@$$*O##$@$#*$@++OO@@@#+@#$@$+OO",
"$*$#$OOoO+$#OO$$+O$#OO$*$*$$$*$O=$*$*#$$=*$*=*$$*O$#+@$$$$$$*++X",
"$$$$$O#@O+#O$O$$$@**+@+==$#$$+$#-$=*=$*$=$=*==@$*+@#$$$$=$$*=@#$",
"=$=*=+@#++$#$$$**$$=@*$=**$$*$*$=====$=$$====*#@$#O$$$#$==*==$$#",
"=*=*;$$*@#$$$$$*=$==$$$:=*;=*$=$==;==*$$;=*:==$$$$$#**$**#=:=$$#",
"==*=:$$*##=****====:*$$>-   ===*:;:;:=**;-=-;-**=+**$=$$**-*=***",
"==>:>*==$#==$**-;=-:**$ spp ==-=<-::ips <:;,;:*#=$*===*=:=:-:$**",
";;,;>*==$$$=**=;==::==4sps =-->=4:,<,*.ps4::<:;--*=*;;*=::<:,-=*",
":>::,=-;$*=;*-;:>:>>*iaps4-=;>,;5>,14- ppsi4,4;,:**=:--=;:4>>-=$",
">;,11=<:>>=-::=><44:OpapX<=>;<=-46,4,:;.pas 45:-,,,=;=-=:1<,<==-",
":<454=::<>;;>>;,4444 spa41;,:4:<8665,::* pps45::>64=;,=-4,511;;-",
">1466==<55=-,,;44>51 pp 45:<,51<85974:,:5ups45,:16,=:>::64554>:-",
"<,456;1>56:,>5:48,6< pp 544,175:05964,,;5ups46:1465;:,>-44155,:-",
">1414<1456,,>>>15544 pp 6545455404956<,:5ups,611405::<;>7=445>>-",
":45461156<:14,,90758@app54<64985960564,69ips49<5458,151<866541::",
"55454,4555,454<58579<iap 4565<9598947515 pp 86555785,51,866664:;",
"5596716666544617q9614.sps66659<506q6755<ppi9975660q156,579,864>>",
"67889<56785<455709954>4sps             sps 998656q9568410965854>",
"68858468975,676989865,<yppasssssssssssapay<89961700546547886q744",
"5769;159975445<790945460pppppaaaaaaappppsw0000587094<:6496980545",
"569w45490<6<95,q0q99764qsppppppppppppppppwwq0q666995555<59w06675",
"69q995598664,6:0q596646wsppppppppppppppps0wqw0868804595594qw0689",
"q699055q8655685qq9w9986qspppppppppppppppsq98wq789094567400wwq669",
"680705990964766qwqq06669spppppppppppppppswq8q08490q447859qwww599",
"q00006090067615qq6qq976wspiuuippppppuuipsqwq9q899q5569>490qq9578",
"07qqq6900065677q09qw748qpp    ppppp    ppqq0qq90q885467400wwq896",
"79905790877597,079ww750qpp    ppppp    ppq00w87wq4q56,96qqwwq08q",
"9q0898908968105669ww8qqwpp    ppppp    ppw0qq99998896655q7qww750",
"0009089q90474;70qqqw6qqq pr  rpppppr  rp q0999979995561606www768",
"q060069q9q7776<qq7qe909qqpppppppppppppppqqqq9q96q051598409qww669",
"0999989099161<7900qw7q0qq ppppppppppppp 08q9990689q557450qwww558",
"999997908058<76768we800qq t           69qwq0q999067856>599qwq6,0",
"50985598846486,979qw649qqw r % % %%&9679w9q0604006q5649509qw0980",
"0806q6679856595q97ww649q0w0 =%%% %.2;469wqq6wq890695<46409wew874",
"0990868607556,4q0590666wqw t %%%%%&3 690q0099968806459<,09qw8:66",
"768795799745441qw00066505q0 3 % &%%3  90qqq7w96969q,454490q0w576",
"660q9458665465400808676wq8q  % 2 3& 33 5qq86w079796<4551990q0477",
"668571<96651:6;76486645q90 2%3 &3  3 &3196qqw87466745615650q7676",
"458071<78;5,55:0868655>009.o&3 .&&&%3..68wq900545594444:66896555",
"4566,116854>4<:57064444907 &3%%% &3%23& 6q9906565774<:4>84659444",
"45684<16654:55,655651>:89 &32 3%.&&3 33 9686861-597<,44<664404,,",
"46566:<5554:<4>666515::97 33 3%   &332  78766651506115<>765494<-",
"41545:54551>,4,565,1,,,75 3.23      333 49565544478>,4:166<61,;:",
"<1441=1>1<-,11,49465,,:54 3 32      .33&-64145,11561:4::4514<>==",
"-,<:1:,,4,:;:;;47444::,4<& &          3  64,14:<146;-:>=5,<1>:--",
":,,:>->:,4>:-::,41,<-::443 =>  rtt      4>4<-4::16<-=,-;4=<;1:-=",
">:><4=,:,,*==-=14:4>:;-<4,>:>  rtt  :;: 44>1<4==>1<-=--=>>:4,-=*",
"*:<<1*=;1:-*-:=,4:<:===<,,:;:1 rtt  :===1>>4><==:4;=*=;=<<1>>=-$",
";,:>,$=-:;*==;*>:,::**=<:>=;46 wtt X4:=@:,,4:>=-=4<*=-**1>,;-==*",
":==>:$-=-=**==*:;::;$**>:rrrrrrrrrrrrrre<;,<>,==;-:$===$>=:;=**$",
"====;*$*=*$***$=$;-=$*$:>-**rrrrrrrrr*$$:;>>;,*#==**$$=$=-:===*#",
"**=*=$$$O+$##$$=*$=-$#$-===*$*-*:-;-;$$$:-*=-=*$$@$$**#$**==;=$+",
"$*==-##$+O@$$$$**$*=$$#;==*=$**$;=-==$+$======$#$O@$$*#$**=**@$+",
"$$O*=OO$OO$@@#@$$$$=#@@==$$$$$*$=====$@@*$*=**#@$O@#+$@@##*$$##O",
"$$$@*O+#oOOO++@#$@$$O#+=*$*$$O$@=****$+O=$$*$$+@@OOO$$O@#O$==@OO",
"#@##$O+Ooo@OOO++$+@*O@O*$$@@@O$@$=$$*$OO@$$*#@+O+Oo@++O+$$$#$+OO",
"@O+OOoOOXooOOo+@OO@$oOO$$@O++o#O$O$#$O#O#@$#$#oO@XoOOOO+@OO@$oOO",
"++OO@oOOXo+OoXOOoo+OoXo$$$+OO#Oo$@@@$O++$$OO##OO@XoOOoOOO+OO@ooX",
"ooOOOXoOXoooXXOo+OO+oXO++OOOO@OX+@+@$oOO@O+O@@OXooXOoOOOOOOOOoXX",
"OOOoOXXXXXXXXXooOXOOXXXO+O@OoOOXO@OO#oooOOOoO+XOXoXoXXXOooOOOXoX"
};
