/* XPM */
static char *_408e103589c4b10de8eb0a4eb1b7561UwF8RIFFMVCQXTCI[] = {
/* columns rows colors chars-per-pixel */
"64 64 4 1 ",
"  c black",
". c gray20",
"X c #565656",
"o c gray67",
/* pixels */
"                                                                ",
" ooXXXXXXXXXXXXX ooXXXXXXXXXXXX ooXXXXXXXXXXXXXooXXXXXXXXXXXXXX ",
" oXXXXXXXXXXXXXX oXXXXXXXXXXXXX oXXXXXXXXXXXXXXooXXXXXXXXXXXXXX ",
" XXXXXXXXXXXXXX. XXXXXXXXXXXXXX oXXXXXXXXXXXXXXoXXXXXXXXXXXXXXX ",
" XXXXXXXXXXXXXX. XXXXXXXXXXXXXX oXXXXXXXXXXXXX.oXXXXXXXXXXXXXXX ",
" XXXXXXXXXXXXXX. XXXXXXXXXXXXXX XXXXXXXXXXXXXX.XXXXXXXXXXXXXXXX ",
" XXXXXXXXXXXXXX. XXXXXXXXXXXXX. XXXXXXXXXXXXX..XXXXXXXXXXXXXXX. ",
" XXXXXXXXXXXXX.. XXXXXXXXXXXX.. XXXXXXXXXXXXX..XXXXXXXXXXXXXX.. ",
"                                                                ",
"oXXXXXXX ooooooooXXXXXXXooooooooXXXXXXXXoooooooXXXXXXXX oooooooo",
"XXXXXXXX oXXXXXXXXXXXXXXooXXXXXXXXXXXXXXooXXXXXXXXXXXXX oXXXXXXX",
"XXXXXXXX oXXXXXXXXXXXXXXoXXXXXXXXXXXXXXXoXXXXXXXXXXXXXX XXXXXXXX",
"XXXXXXXX oXXXXXXXXXXXXX.oXXXXXXXXXXXXXX.oXXXXXXXXXXXXX. XXXXXXXX",
"XXXXXXXX oXXXXXXXXXXXXX.oXXXXXXXXXXXXXX.oXXXXXXXXXXXXX. XXXXXXXX",
"XXXXXXXX XXXXXXXXXXXXXX.XXXXXXXXXXXXXXX.XXXXXXXXXXXXXX. XXXXXXXX",
"XXXXXX.. XXXXXXXXXXXXX..XXXXXXXXXXXXXX..XXXXXXXXXXXXX.. XXXXXXXX",
"........ XXXXXXX........XXXXXXX.........XXXXXXX........ XXXXXXX.",
" ooooooooXXXXXXX oooooooXXXXXXX ooooooooXXXXXXXoooooooooXXXXXXX ",
" ooXXXXXXXXXXXXX ooXXXXXXXXXXXX ooXXXXXXXXXXXXXooXXXXXXXXXXXXXX ",
" XXXXXXXXXXXXXXX XXXXXXXXXXXXXX oXXXXXXXXXXXXXXoXXXXXXXXXXXXXXX ",
" XXXXXXXXXXXXXX. XXXXXXXXXXXXXX oXXXXXXXXXXXXX.oXXXXXXXXXXXXXXX ",
" XXXXXXXXXXXXXX. XXXXXXXXXXXXXX oXXXXXXXXXXXXX.oXXXXXXXXXXXXXXX ",
" XXXXXXXXXXXXXX. XXXXXXXXXXXXXX XXXXXXXXXXXXXX.XXXXXXXXXXXXXXXX ",
" XXXXXXXXXXXXXX. XXXXXXXXXXXXX. XXXXXXXXXXXXX..XXXXXXXXXXXXXXX. ",
" XXXXXXX........ XXXXXXX....... XXXXXXXX.......XXXXXXXX........ ",
"                                                                ",
"XXXXXXXX ooXXXXXXXXXXXXX ooXXXXXXXXXXXXXooXXXXXXXXXXXXX ooXXXXXX",
"XXXXXXXX oXXXXXXXXXXXXXX oXXXXXXXXXXXXXXooXXXXXXXXXXXXX oXXXXXXX",
"XXXXXXXX oXXXXXXXXXXXXXX oXXXXXXXXXXXXXXoXXXXXXXXXXXXXX XXXXXXXX",
"XXXXXXXX oXXXXXXXXXXXXXX oXXXXXXXXXXXXX.oXXXXXXXXXXXXX. XXXXXXXX",
"XXXXXXXX oXXXXXXXXXXXXXX oXXXXXXXXXXXXX.oXXXXXXXXXXXXX. XXXXXXXX",
"XXXXXXX. XXXXXXXXXXXXXX. XXXXXXXXXXXXX..XXXXXXXXXXXXXX. XXXXXXXX",
"XXXXXX.. XXXXXXXXXXXXX.. XXXXXXXXXXXXX..XXXXXXXXXXXXX.. XXXXXXXX",
"                                                                ",
" oooooooooXXXXXX oooooooXXXXXXX ooooooooXXXXXXX ooooooooXXXXXXX ",
" oXXXXXXXXXXXXXX oXXXXXXXXXXXXX oXXXXXXXXXXXXXX oXXXXXXXXXXXXXX ",
" XXXXXXXXXXXXXXX XXXXXXXXXXXXXX oXXXXXXXXXXXXXX oXXXXXXXXXXXXXX ",
" XXXXXXXXXXXXXX. XXXXXXXXXXXXXX oXXXXXXXXXXXXXX oXXXXXXXXXXXXXX ",
" XXXXXXXXXXXXXX. XXXXXXXXXXXXXX oXXXXXXXXXXXXXX oXXXXXXXXXXXXXX ",
" XXXXXXXXXXXXXX. XXXXXXXXXXXXXX XXXXXXXXXXXXXXX XXXXXXXXXXXXXXX ",
" XXXXXXXXXXXXX.. XXXXXXXXXXXX.. XXXXXXXXXXXXX.. XXXXXXXXXXXXX.. ",
" XXXXXXX........ XXXXXXX....... XXXXXXXX....... XXXXXXX........ ",
"oXXXXXXX ooooooooXXXXXXX oooooooXXXXXXXXooooooooXXXXXXX oooooooo",
"XXXXXXXX ooXXXXXXXXXXXXX ooXXXXXXXXXXXXXooXXXXXXXXXXXXX ooXXXXXX",
"XXXXXXXX oXXXXXXXXXXXXXX oXXXXXXXXXXXXXXoXXXXXXXXXXXXXX XXXXXXXX",
"XXXXXXXX oXXXXXXXXXXXXXX oXXXXXXXXXXXXX.oXXXXXXXXXXXXX. XXXXXXXX",
"XXXXXXXX oXXXXXXXXXXXXXX oXXXXXXXXXXXXX.oXXXXXXXXXXXXX. XXXXXXXX",
"XXXXXXXX oXXXXXXXXXXXXXX oXXXXXXXXXXXXX.oXXXXXXXXXXXXX. XXXXXXXX",
"XXXXXXX. XXXXXXXXXXXXXX. XXXXXXXXXXXXX..XXXXXXXXXXXXXX. XXXXXXXX",
"........ XXXXXXX........ XXXXXXX........XXXXXXXX....... XXXXXXX.",
"                                                                ",
" ooXXXXXXXXXXXXX ooXXXXXXXXXXXXX ooXXXXXXXXXXXXX ooXXXXXXXXXXXX ",
" XXXXXXXXXXXXXXX XXXXXXXXXXXXXXX XXXXXXXXXXXXXXX XXXXXXXXXXXXXX ",
" XXXXXXXXXXXXXX. XXXXXXXXXXXXXX. XXXXXXXXXXXXXX. XXXXXXXXXXXXXX ",
" XXXXXXXXXXXXXX. XXXXXXXXXXXXXX. XXXXXXXXXXXXXX. XXXXXXXXXXXXXX ",
" XXXXXXXXXXXXXX. XXXXXXXXXXXXXX. XXXXXXXXXXXXXX. XXXXXXXXXXXXXX ",
" XXXXXXXXXXXXX.. XXXXXXXXXXXXX.. XXXXXXXXXXXXX.. XXXXXXXXXXXX.. ",
" XXXXXXX........ XXXXXXX........ XXXXXXX........ XXXXXX........ ",
"oXXXXXXX ooooooooXXXXXXX ooooooooXXXXXXXoooooooooXXXXXX oooooooo",
"XXXXXXXX ooXXXXXXXXXXXXX ooXXXXXXXXXXXXXooXXXXXXXXXXXXX ooXXXXXX",
"XXXXXXXX oXXXXXXXXXXXXXX oXXXXXXXXXXXXX.oXXXXXXXXXXXXX. XXXXXXXX",
"XXXXXXXX oXXXXXXXXXXXXXX oXXXXXXXXXXXXX.oXXXXXXXXXXXXX. XXXXXXXX",
"XXXXXXX. oXXXXXXXXXXXXX. oXXXXXXXXXXXX..oXXXXXXXXXXXXX. XXXXXXXX",
"........ XXXXXXX........ XXXXXXXX.......XXXXXXXX....... XXXXXXX."
};
